<svg width="538" height="647" viewBox="0 0 538 647" fill="none" xmlns="http://www.w3.org/2000/svg">
<g opacity="0.25">
<path d="M283.565 23.7844C280.663 27.1176 277.533 30.1678 274.899 33.8094C265.493 46.8129 260.692 63.3755 257.687 81.1425C251.55 117.364 252.499 155.457 255.978 194.265C257.69 213.312 260.364 232.363 263.153 251.437C263.35 252.778 263.333 254.119 263.454 256.078C261.334 254.52 260.552 252.344 259.738 250.507C252.407 233.911 246.754 216.939 245.544 199.057C245.257 194.829 244.469 190.64 240.047 190.221C235.856 189.823 235.922 193.79 236.364 197.778C238.559 217.514 243.181 236.745 252.264 255.034C252.876 256.263 253.236 257.651 254.031 259.835C247.747 256.141 242.069 252.593 236.317 249.452C222.114 241.704 207.835 237.988 193.47 238.191C189.626 238.242 188.497 240.367 189.252 245.053C189.866 248.821 191.009 250.12 194.204 249.886C213.908 248.486 232.755 257.449 252.064 271.282C248.007 273.413 244.157 271.739 240.68 271.199C212.14 266.745 183.946 265.11 156.252 267.22C137.189 268.675 118.232 271.007 100.986 278.946C88.8451 284.543 79.3956 294.094 74.9361 309.943C69.1576 330.487 79.9312 351.955 99.2508 360.537C113.522 366.872 127.4 367.383 141.038 365.927C174.748 362.322 204.934 348.822 234.136 332.618C241.432 328.562 248.775 324.607 256.375 320.453C255.989 324.324 254.119 326.68 252.804 329.331C240.333 354.417 229.024 380.429 219.864 408.21C215.95 420.066 212.632 432.28 211.338 445.629C211.046 448.666 211.148 451.771 211.27 454.933C211.838 469.266 222.531 474.142 230.053 472.413C232.844 471.763 235.213 469.658 238.431 470.502C239.491 469.043 240.539 467.575 241.587 466.108C252.411 457.613 258.66 444.149 264.088 430.028C275.757 399.698 282.219 366.289 287.122 332.009C287.71 327.92 288.41 323.87 288.756 319.701C289.069 315.948 290.353 315.612 293.151 317.486C303.264 324.262 312.407 333.145 321.364 342.291C349.516 371.033 375.421 402.908 400.74 435.599C416.298 455.679 432.191 475.35 447.912 495.24C459.585 510.008 471.227 524.825 482.887 539.637C481.429 534.645 485.085 533.144 485.994 529.777C478.573 521.066 471.217 512.265 463.731 503.669C432.981 468.322 404.182 430.524 375.112 393.048C359.207 372.544 342.23 353.334 326.906 332.082C319.846 322.283 313.027 312.241 305.972 302.428C303.22 298.6 305.121 298.196 307.232 297.624C318.528 294.56 330.042 292.227 341.167 288.558C365.15 280.653 388.936 272.31 408.947 255.329C415.353 249.895 421.252 243.626 424.828 234.602C427.142 228.774 428.492 222.459 426.94 215.236C424.786 205.21 418.271 200.082 409 200.473C395.611 201.04 383.788 206.39 372.287 212.304C352.235 222.613 333.581 235.697 315.676 250.171C313.571 251.88 312.1 254.823 308.52 255.118C311.194 247.562 313.767 240.501 316.2 233.346C326.826 202.073 334.534 169.206 336.547 133.36C337.839 110.3 336.243 86.8789 329.528 63.1221C326.396 52.0382 322.183 41.5048 314.921 32.6702C309.153 25.6477 302.903 21.274 295.5 21.1156C294.991 21.1044 294.384 20.4224 293.818 20.0396C290.39 21.2871 286.962 22.5347 283.535 23.7822L283.565 23.7844ZM289.693 105.196C295.206 103.281 299.645 106.704 302.913 114.375C309.376 129.547 310.853 144.989 310.672 160.276C310.182 202.281 298.278 237.671 283.738 271.467C282.355 274.68 279.661 274.024 278.12 270.136C277.391 268.294 277.087 266.206 276.842 264.227C273.157 234.826 270.442 205.556 271.28 176.798C271.856 156.997 273.51 137.654 279.709 120.451C282.113 113.779 285.061 107.588 289.693 105.196ZM203.875 329.301C196.513 332.19 188.882 334.287 181.055 335.605C169.616 337.53 158.093 339.146 145.71 333.196C135.866 328.468 131.81 316.923 136.664 307.225C141.35 297.863 148.811 293.355 157.487 290.982C177.986 285.393 199.464 284.708 221.357 286.071C235.157 286.925 249.074 289.463 262.949 291.297C265.059 291.576 265.538 293.103 266.133 294.391C267.061 296.409 265.498 296.939 264.506 297.575C245.109 309.948 225.078 320.93 203.879 329.287L203.875 329.301ZM320.007 180.671C318.579 179.227 319.12 178.075 319.208 177.036C320.132 166.19 320.151 155.124 318.747 143.804C317.059 130.232 314.959 116.731 307.324 104.446C300.345 93.2177 290.195 89.8056 282.447 96.4602C272.972 104.607 269.281 117.795 266.607 131.725C265.213 138.985 264.36 146.533 263.255 153.95C263.448 143.174 262.752 132.277 263.196 121.58C263.926 103.908 265.865 86.9477 269.72 70.769C272.872 57.5156 277.451 45.353 286.166 37.0637C295.092 28.58 304.884 31.887 312.978 45.2216C319.887 56.6058 322.614 69.0282 324.86 81.5466C329.494 107.396 328.352 131.958 324.827 155.896C323.593 164.289 322.776 172.923 320.007 180.671ZM294.894 288.281C295.843 281.209 299.968 279.001 303.189 275.931C317.3 262.419 332.644 251.01 348.423 240.32C364.49 229.434 381.012 219.612 399.196 213.503C403.587 212.023 408.156 210.792 413.23 211.694C417.671 212.485 418.897 215.56 418.489 220.145C417.916 226.622 415.564 231.784 412.246 236.106C400.393 251.558 384.349 259.361 368.112 266.448C351.97 273.501 335.2 278.964 318.074 283.287C310.598 285.17 302.98 286.555 294.907 288.29L294.894 288.281ZM230.241 460.343C221.84 463.178 218.99 460.067 219.828 449.252C220.241 443.907 221.114 438.76 222.409 433.812C229.085 408.27 238.694 384.919 248.796 361.964C256.671 344.06 265.073 326.619 274.393 310.021C275.365 308.293 276.357 306.244 278.827 307.779C281.685 309.553 280.473 312.062 280.201 314.007C278.384 326.826 276.717 339.735 274.415 352.312C268.917 382.294 262.475 411.704 250.023 437.189C245.089 447.282 239.23 456.22 230.249 460.34L230.241 460.343ZM155.411 279.226C145.568 282.39 136.524 287.056 130.316 297.115C123.409 308.32 124.139 323.602 132.416 334.318C136.913 340.141 142.435 343.131 148.189 345.368C153.534 347.441 158.859 347.701 165.486 349.111C150.012 353.683 135.346 356.181 119.887 354.845C111.401 354.112 102.818 352.315 94.5386 346.364C84.6413 339.247 80.4473 328.498 83.2634 316.532C86.1235 304.34 92.7846 296.38 101.761 291.634C118.216 282.935 136.572 280.442 155.398 279.218L155.411 279.226Z" fill="#64090E"/>
</g>
</svg>
