<svg xmlns="http://www.w3.org/2000/svg" xmlns:xlink="http://www.w3.org/1999/xlink" width="1920" zoomAndPan="magnify" viewBox="0 0 1440 809.999993" height="1080" preserveAspectRatio="xMidYMid meet" version="1.0"><rect x="-144" width="1728" fill="#ffffff" y="-80.999999" height="971.999992" fill-opacity="1"/><rect x="-144" width="1728" fill="#fefefe" y="-80.999999" height="971.999992" fill-opacity="1"/><path fill="#f8e8bc" d="M 1555.0625 975.039062 L 1555.0625 1185.4375 C 1555.066406 1188.632812 1554.980469 1191.828125 1554.8125 1195.019531 C 1554.640625 1198.210938 1554.382812 1201.394531 1554.039062 1204.570312 C 1553.695312 1207.746094 1553.265625 1210.914062 1552.75 1214.066406 C 1552.234375 1217.21875 1551.632812 1220.355469 1550.949219 1223.476562 C 1550.261719 1226.597656 1549.492188 1229.699219 1548.640625 1232.777344 C 1547.785156 1235.855469 1546.851562 1238.910156 1545.832031 1241.941406 C 1544.8125 1244.96875 1543.710938 1247.96875 1542.527344 1250.9375 C 1541.347656 1253.90625 1540.085938 1256.839844 1538.742188 1259.738281 C 1537.402344 1262.640625 1535.984375 1265.5 1534.488281 1268.324219 C 1532.992188 1271.148438 1531.421875 1273.929688 1529.773438 1276.667969 C 1528.125 1279.40625 1526.40625 1282.097656 1524.613281 1284.742188 C 1522.820312 1287.386719 1520.957031 1289.980469 1519.023438 1292.527344 C 1517.089844 1295.070312 1515.089844 1297.558594 1513.019531 1299.996094 C 1510.949219 1302.429688 1508.816406 1304.808594 1506.621094 1307.128906 C 1504.421875 1309.445312 1502.164062 1311.707031 1499.84375 1313.902344 C 1497.523438 1316.101562 1495.144531 1318.234375 1492.707031 1320.300781 C 1490.273438 1322.367188 1487.78125 1324.371094 1485.238281 1326.304688 C 1482.695312 1328.234375 1480.101562 1330.097656 1477.453125 1331.890625 C 1474.808594 1333.683594 1472.117188 1335.402344 1469.378906 1337.050781 C 1466.640625 1338.695312 1463.859375 1340.265625 1461.035156 1341.761719 C 1458.210938 1343.257812 1455.347656 1344.675781 1452.449219 1346.015625 C 1449.546875 1347.359375 1446.613281 1348.617188 1443.644531 1349.800781 C 1440.675781 1350.980469 1437.675781 1352.082031 1434.648438 1353.097656 C 1431.617188 1354.117188 1428.5625 1355.054688 1425.484375 1355.90625 C 1422.40625 1356.761719 1419.304688 1357.527344 1416.183594 1358.214844 C 1413.0625 1358.898438 1409.925781 1359.5 1406.773438 1360.011719 C 1403.617188 1360.527344 1400.453125 1360.957031 1397.277344 1361.300781 C 1394.097656 1361.644531 1390.914062 1361.898438 1387.722656 1362.070312 C 1384.53125 1362.242188 1381.339844 1362.324219 1378.144531 1362.320312 C 1374.949219 1362.320312 1371.757812 1362.230469 1368.566406 1362.054688 C 1365.375 1361.878906 1362.191406 1361.617188 1359.015625 1361.265625 C 1355.839844 1360.917969 1352.675781 1360.484375 1349.519531 1359.964844 C 1297.382812 1351.59375 1245.097656 1344.265625 1192.667969 1337.980469 C 1140.234375 1331.691406 1087.699219 1326.449219 1035.0625 1322.25 C 982.421875 1318.054688 929.71875 1314.902344 876.957031 1312.804688 C 824.191406 1310.703125 771.40625 1309.652344 718.597656 1309.652344 C 665.792969 1309.652344 613.007812 1310.703125 560.242188 1312.804688 C 507.476562 1314.902344 454.773438 1318.054688 402.136719 1322.25 C 349.496094 1326.449219 296.960938 1331.691406 244.53125 1337.980469 C 192.097656 1344.265625 139.816406 1351.59375 87.675781 1359.964844 C 84.535156 1360.449219 81.386719 1360.851562 78.226562 1361.167969 C 75.0625 1361.488281 71.898438 1361.71875 68.722656 1361.863281 C 65.550781 1362.011719 62.375 1362.070312 59.199219 1362.046875 C 56.023438 1362.023438 52.847656 1361.910156 49.675781 1361.714844 C 46.507812 1361.519531 43.34375 1361.238281 40.1875 1360.871094 C 37.03125 1360.503906 33.886719 1360.054688 30.757812 1359.519531 C 27.625 1358.980469 24.511719 1358.363281 21.414062 1357.660156 C 18.316406 1356.953125 15.238281 1356.167969 12.183594 1355.296875 C 9.128906 1354.429688 6.097656 1353.476562 3.09375 1352.445312 C 0.0898438 1351.410156 -2.882812 1350.296875 -5.828125 1349.105469 C -8.773438 1347.910156 -11.683594 1346.636719 -14.558594 1345.289062 C -17.433594 1343.9375 -20.269531 1342.511719 -23.070312 1341.007812 C -25.867188 1339.503906 -28.625 1337.925781 -31.335938 1336.273438 C -34.050781 1334.621094 -36.71875 1332.898438 -39.335938 1331.101562 C -41.957031 1329.308594 -44.527344 1327.441406 -47.050781 1325.507812 C -49.570312 1323.574219 -52.035156 1321.574219 -54.445312 1319.503906 C -56.859375 1317.4375 -59.214844 1315.308594 -61.511719 1313.113281 C -63.808594 1310.917969 -66.046875 1308.664062 -68.222656 1306.351562 C -70.398438 1304.035156 -72.507812 1301.664062 -74.554688 1299.234375 C -76.605469 1296.804688 -78.585938 1294.324219 -80.5 1291.789062 C -82.414062 1289.253906 -84.257812 1286.667969 -86.03125 1284.03125 C -87.808594 1281.398438 -89.507812 1278.71875 -91.140625 1275.992188 C -92.769531 1273.265625 -94.324219 1270.496094 -95.804688 1267.683594 C -97.285156 1264.875 -98.691406 1262.027344 -100.019531 1259.140625 C -101.34375 1256.253906 -102.59375 1253.332031 -103.765625 1250.378906 C -104.933594 1247.425781 -106.023438 1244.445312 -107.03125 1241.429688 C -108.042969 1238.417969 -108.96875 1235.382812 -109.8125 1232.320312 C -110.660156 1229.257812 -111.421875 1226.175781 -112.101562 1223.070312 C -112.777344 1219.96875 -113.375 1216.847656 -113.886719 1213.710938 C -114.394531 1210.578125 -114.820312 1207.429688 -115.164062 1204.273438 C -115.503906 1201.113281 -115.761719 1197.949219 -115.929688 1194.777344 C -116.101562 1191.601562 -116.1875 1188.429688 -116.1875 1185.253906 L -116.1875 974.851562 C -116.191406 972.28125 -116.136719 969.714844 -116.027344 967.148438 C -115.921875 964.582031 -115.753906 962.019531 -115.535156 959.460938 C -115.316406 956.902344 -115.039062 954.351562 -114.707031 951.804688 C -114.375 949.257812 -113.988281 946.71875 -113.542969 944.1875 C -113.101562 941.65625 -112.605469 939.136719 -112.050781 936.628906 C -111.5 934.121094 -110.890625 931.628906 -110.230469 929.144531 C -109.566406 926.664062 -108.851562 924.199219 -108.082031 921.746094 C -107.3125 919.296875 -106.488281 916.863281 -105.613281 914.449219 C -104.738281 912.035156 -103.808594 909.640625 -102.828125 907.265625 C -101.847656 904.894531 -100.816406 902.542969 -99.734375 900.210938 C -98.652344 897.882812 -97.519531 895.578125 -96.335938 893.300781 C -95.152344 891.019531 -93.917969 888.769531 -92.636719 886.542969 C -91.351562 884.316406 -90.023438 882.121094 -88.644531 879.953125 C -87.265625 877.785156 -85.84375 875.648438 -84.371094 873.542969 C -82.898438 871.441406 -81.382812 869.367188 -79.820312 867.328125 C -78.257812 865.289062 -76.652344 863.285156 -75.003906 861.316406 C -73.355469 859.347656 -71.664062 857.417969 -69.929688 855.523438 C -68.195312 853.625 -66.421875 851.769531 -64.605469 849.953125 C -62.789062 848.136719 -60.9375 846.359375 -59.042969 844.621094 C -57.152344 842.886719 -55.222656 841.191406 -53.253906 839.539062 C -51.289062 837.886719 -49.289062 836.277344 -47.25 834.714844 C -45.214844 833.148438 -43.144531 831.628906 -41.039062 830.15625 C -38.9375 828.683594 -36.804688 827.253906 -34.636719 825.875 C -32.472656 824.492188 -30.277344 823.160156 -28.054688 821.875 C -25.828125 820.589844 -23.578125 819.351562 -21.300781 818.167969 C -19.023438 816.980469 -16.722656 815.84375 -14.394531 814.757812 C -12.066406 813.671875 -9.714844 812.636719 -7.34375 811.652344 C -4.96875 810.667969 -2.578125 809.738281 -0.164062 808.859375 C 2.25 807.980469 4.679688 807.152344 7.128906 806.378906 C 9.578125 805.605469 12.042969 804.886719 14.523438 804.222656 C 17.003906 803.558594 19.5 802.945312 22.007812 802.390625 C 24.515625 801.835938 27.035156 801.332031 29.5625 800.886719 C 86.472656 790.902344 143.574219 782.15625 200.867188 774.652344 C 258.160156 767.148438 315.585938 760.886719 373.148438 755.878906 C 430.714844 750.867188 488.359375 747.105469 546.085938 744.597656 C 603.8125 742.089844 661.566406 740.835938 719.34375 740.835938 C 777.125 740.835938 834.878906 742.089844 892.605469 744.597656 C 950.332031 747.105469 1007.980469 750.867188 1065.542969 755.878906 C 1123.105469 760.886719 1180.53125 767.148438 1237.824219 774.652344 C 1295.117188 782.15625 1352.21875 790.902344 1409.128906 800.886719 C 1411.664062 801.332031 1414.183594 801.832031 1416.695312 802.386719 C 1419.207031 802.9375 1421.707031 803.546875 1424.191406 804.210938 C 1426.675781 804.875 1429.144531 805.59375 1431.597656 806.367188 C 1434.050781 807.136719 1436.488281 807.960938 1438.90625 808.839844 C 1441.320312 809.71875 1443.71875 810.648438 1446.097656 811.632812 C 1448.472656 812.617188 1450.828125 813.648438 1453.15625 814.738281 C 1455.488281 815.824219 1457.796875 816.960938 1460.078125 818.144531 C 1462.359375 819.332031 1464.613281 820.570312 1466.84375 821.855469 C 1469.070312 823.140625 1471.269531 824.472656 1473.4375 825.855469 C 1475.605469 827.238281 1477.746094 828.667969 1479.851562 830.140625 C 1481.957031 831.617188 1484.03125 833.136719 1486.070312 834.703125 C 1488.113281 836.269531 1490.117188 837.878906 1492.085938 839.535156 C 1494.058594 841.1875 1495.988281 842.882812 1497.886719 844.621094 C 1499.78125 846.359375 1501.636719 848.136719 1503.457031 849.957031 C 1505.273438 851.777344 1507.050781 853.636719 1508.789062 855.535156 C 1510.523438 857.429688 1512.21875 859.363281 1513.871094 861.335938 C 1515.523438 863.308594 1517.128906 865.3125 1518.695312 867.355469 C 1520.257812 869.398438 1521.777344 871.472656 1523.25 873.582031 C 1524.722656 875.6875 1526.152344 877.828125 1527.53125 880 C 1528.910156 882.167969 1530.242188 884.367188 1531.527344 886.597656 C 1532.808594 888.828125 1534.042969 891.082031 1535.230469 893.363281 C 1536.414062 895.648438 1537.546875 897.957031 1538.632812 900.289062 C 1539.714844 902.621094 1540.75 904.976562 1541.730469 907.351562 C 1542.710938 909.730469 1543.640625 912.128906 1544.515625 914.546875 C 1545.390625 916.964844 1546.214844 919.402344 1546.984375 921.855469 C 1547.753906 924.308594 1548.46875 926.777344 1549.128906 929.265625 C 1549.792969 931.75 1550.398438 934.25 1550.953125 936.761719 C 1551.503906 939.273438 1552 941.796875 1552.441406 944.328125 C 1552.882812 946.863281 1553.269531 949.40625 1553.601562 951.957031 C 1553.933594 954.507812 1554.207031 957.0625 1554.425781 959.625 C 1554.644531 962.1875 1554.804688 964.753906 1554.914062 967.324219 C 1555.019531 969.894531 1555.070312 972.464844 1555.0625 975.039062 Z M 1555.0625 975.039062 " fill-opacity="1" fill-rule="nonzero"/></svg>