<svg width="182" height="215" viewBox="0 0 182 215" fill="none" xmlns="http://www.w3.org/2000/svg">
<path d="M25.0563 29.798C26.6284 30.115 28.2135 30.3097 29.7662 30.7634C35.3109 32.3832 40.1639 35.8855 44.7093 40.0726C53.9798 48.6066 61.4509 59.0652 68.2888 70.2238C71.6437 75.7014 74.7032 81.3728 77.732 87.0736C77.9447 87.4748 78.2231 87.8329 78.585 88.3851C78.9199 87.5402 78.7172 86.7969 78.5934 86.1385C77.4674 80.1951 75.7485 74.487 72.4767 69.4241C71.7034 68.227 71.0919 66.9398 72.3675 65.9404C73.5763 64.9929 74.3646 66.0757 75.0412 67.2393C78.3875 72.9992 80.8842 79.1099 81.8161 85.8605C81.8782 86.3148 82.0503 86.7608 82.2508 87.5089C83.4319 85.2536 84.4561 83.1591 85.5864 81.1592C88.3785 76.2236 92.0154 72.3599 96.4779 69.535C97.6712 68.7783 98.4516 69.1249 99.1743 70.5392C99.7531 71.6781 99.6662 72.2572 98.6354 72.8347C92.286 76.4069 88.3124 82.601 85.1889 90.2006C86.8717 89.9618 87.7156 88.7387 88.6754 87.896C96.5511 80.9746 104.895 74.8825 113.848 69.8998C120.011 66.4708 126.32 63.2995 133.246 61.9826C138.123 61.0576 142.977 61.7382 147.58 65.1166C153.545 69.4961 154.604 77.4429 150.407 83.6288C147.306 88.1974 143.139 91.117 138.645 93.4582C127.536 99.2435 115.495 101.655 103.206 103.141C100.134 103.51 97.0683 103.916 93.8828 104.32C94.7905 105.285 95.8459 105.546 96.7911 105.997C105.741 110.259 114.523 115.004 123.004 120.657C126.624 123.068 130.134 125.696 133.253 129.035C133.962 129.795 134.563 130.652 135.17 131.529C137.916 135.507 135.619 138.965 132.952 140.006C131.96 140.391 130.802 140.298 129.984 141.17C129.36 140.99 128.739 140.804 128.117 140.618C123.055 140.498 118.388 138.122 113.84 135.403C104.068 129.566 95.2704 121.856 86.7753 113.598C85.761 112.614 84.7203 111.662 83.7642 110.607C82.9032 109.659 82.4393 109.825 81.9602 110.891C80.2288 114.745 79.2253 118.972 78.3326 123.233C75.5261 136.624 74.0495 150.409 72.9195 164.297C72.224 172.828 71.3415 181.317 70.5569 189.83C69.974 196.15 69.4107 202.479 68.8408 208.808C68.2721 207.17 66.8412 207.499 65.8752 206.773C66.3837 202.937 66.8543 199.091 67.4063 195.273C69.6662 179.581 70.8262 163.619 72.1351 147.689C72.8515 138.974 74.1615 130.393 74.5465 121.592C74.7223 117.536 74.7742 113.462 74.9457 109.402C75.0125 107.819 74.3453 108.091 73.579 108.36C69.4781 109.798 65.4593 111.477 61.2879 112.718C52.2958 115.395 43.2755 117.914 33.6565 117.347C30.5775 117.167 27.4845 116.659 24.5449 114.944C22.6451 113.836 20.9426 112.405 19.9482 110.147C18.5682 107.012 19.528 104.324 22.4607 102.571C26.6969 100.04 31.4257 99.1122 36.1704 98.4009C44.4423 97.1602 52.8496 96.9482 61.3097 97.2608C62.3057 97.2994 63.3583 97.798 64.5203 97.16C62.1573 95.6591 59.9264 94.2713 57.7198 92.8304C48.0763 86.5304 39.0062 79.2155 31.0812 69.9561C25.9844 63.9991 21.7024 57.3656 18.9277 49.6154C17.6327 45.9998 16.7825 42.316 17.217 38.4788C17.561 35.4295 18.5931 32.9978 20.8393 31.471C20.9936 31.366 21.0415 31.0604 21.1378 30.8437C22.4468 30.493 23.7559 30.1422 25.065 29.7914L25.0563 29.798ZM39.7614 52.9722C37.6743 53.5611 37.0059 55.3736 37.5636 58.0964C38.6663 63.4817 41.3588 67.9405 44.5298 72.0249C53.2411 83.2501 64.1165 90.4037 75.4789 96.5995C76.5592 97.1882 77.2546 96.4716 76.9365 95.1143C76.7854 94.4717 76.4534 93.848 76.1255 93.2655C71.2678 84.6013 66.1385 76.1668 60.02 68.5829C55.8075 63.3605 51.3563 58.4778 45.9428 55.0833C43.8432 53.7664 41.6743 52.6887 39.7614 52.9722ZM111.843 96.1809C114.698 95.4839 117.473 94.5196 120.151 93.3058C124.063 91.5319 127.939 89.6577 130.538 85.5715C132.603 82.324 131.499 78.3985 128.029 76.7574C124.679 75.1731 121.464 75.4533 118.31 76.5529C110.863 79.1551 104.113 83.2759 97.6528 88.0318C93.58 91.0281 89.8141 94.5021 85.9178 97.7777C85.3252 98.2759 85.4893 98.7834 85.5687 99.2501C85.6942 99.9801 86.2833 99.8095 86.718 99.7821C95.2093 99.2294 103.612 98.1744 111.839 96.1778L111.843 96.1809ZM45.8133 79.394C45.9586 78.7187 45.5572 78.5166 45.3184 78.2539C42.8238 75.5155 40.5628 72.5363 38.6877 69.2035C36.4416 65.2064 34.3364 61.146 34.1825 56.3041C34.0419 51.8785 36.4704 48.9241 40.2109 49.1649C44.7873 49.4617 48.6108 52.2768 52.2725 55.4958C54.1813 57.1735 55.982 59.0372 57.8334 60.8151C55.5781 57.949 53.5716 54.8719 51.2548 52.0774C47.4289 47.4599 43.3756 43.2767 38.8923 39.6881C35.221 36.7475 31.3333 34.3866 26.9619 33.8991C22.486 33.4014 20.1465 36.2556 20.3729 41.4727C20.5665 45.9264 22.2592 49.8216 24.1189 53.6465C27.9606 61.5435 33.3179 67.9356 39.2808 73.6817C41.3711 75.6969 43.382 77.8606 45.8133 79.394ZM75.4721 103.368C73.7389 101.652 72.0191 101.884 70.4024 101.702C63.3058 100.888 56.2589 100.888 49.2242 101.169C42.061 101.455 34.9745 102.12 28.1334 104.118C26.4804 104.599 24.8234 105.183 23.4458 106.443C22.2402 107.547 22.4895 108.621 23.5495 109.776C25.0459 111.407 26.8217 112.327 28.7236 112.827C35.5204 114.616 42.0482 113.504 48.4894 112.159C54.8947 110.825 61.1689 108.936 67.3205 106.668C70.005 105.677 72.6319 104.524 75.4699 103.373L75.4721 103.368ZM130.434 136.79C133.597 135.871 133.84 134.461 131.379 131.713C130.162 130.355 128.845 129.143 127.438 128.069C120.178 122.521 112.462 118.153 104.675 113.99C98.6029 110.742 92.4627 107.725 86.2118 105.119C85.5604 104.848 84.8378 104.495 84.3903 105.404C83.8722 106.455 84.7565 106.888 85.2366 107.358C88.4081 110.449 91.552 113.595 94.8238 116.524C102.626 123.504 110.602 130.14 119.628 134.514C123.203 136.246 126.828 137.481 130.431 136.791L130.434 136.79ZM116.553 72.9677C120.227 71.8475 123.962 71.2924 127.922 72.7597C132.331 74.3954 135.221 78.6613 134.857 83.2091C134.66 85.6803 133.57 87.5931 132.255 89.3497C131.033 90.9797 129.447 92.1174 127.695 93.8257C133.388 91.9564 138.411 89.69 142.897 86.231C145.359 84.3324 147.634 82.1276 148.969 78.8637C150.565 74.9614 149.665 71.223 146.36 68.5619C142.995 65.8488 139.323 65.0381 135.593 65.5581C128.756 66.5118 122.599 69.5192 116.555 72.9629L116.553 72.9677Z" fill="#FAF6EB"/>
</svg>
