<svg width="468" height="182" viewBox="0 0 468 182" fill="none" xmlns="http://www.w3.org/2000/svg">
<g filter="url(#filter0_d_219_241)">
<path d="M177.385 0.00288458C178.603 0.504802 179.859 0.925951 181.032 1.51729C185.219 3.62881 188.427 6.89415 191.232 10.5691C196.954 18.0604 200.779 26.5324 203.932 35.365C205.478 39.7005 206.74 44.1139 207.97 48.5418C208.056 48.8533 208.205 49.1475 208.381 49.5889C208.84 49.0754 208.838 48.5331 208.881 48.0629C209.263 43.8168 209.108 39.6226 207.538 35.5842C207.168 34.6294 206.949 33.6429 208.214 33.1958C209.412 32.7718 209.82 33.6516 210.119 34.566C211.597 39.0919 212.301 43.7014 211.582 48.461C211.533 48.7812 211.576 49.1158 211.576 49.661C213.039 48.3427 214.338 47.1052 215.703 45.9514C219.075 43.1043 222.903 41.1399 227.179 40.0322C228.323 39.7351 228.886 40.113 229.168 41.2063C229.392 42.0861 229.194 42.464 228.222 42.6688C222.236 43.9409 217.62 47.4283 213.393 52.0263C214.824 52.1706 215.784 51.4927 216.755 51.0946C224.728 47.8235 232.901 45.2014 241.331 43.4447C247.133 42.2361 252.999 41.2294 258.962 41.5957C263.161 41.8553 266.989 43.2024 270.018 46.3379C273.944 50.4023 273.068 55.9984 268.271 59.4397C264.727 61.981 260.672 63.207 256.476 63.9801C246.104 65.8896 235.709 65.3358 225.314 64.107C222.716 63.7983 220.115 63.5156 217.416 63.2099C217.948 64.032 218.756 64.4012 219.431 64.8801C225.828 69.4088 231.982 74.2348 237.689 79.6232C240.126 81.9222 242.425 84.3481 244.248 87.1865C244.661 87.8327 244.966 88.525 245.271 89.2317C246.647 92.4365 244.006 94.3692 241.592 94.5913C240.695 94.672 239.767 94.398 238.905 94.8422C238.434 94.6057 237.965 94.3663 237.497 94.1268C233.375 93.123 230.073 90.6567 226.943 87.9798C220.218 82.2308 214.703 75.3857 209.556 68.2233C208.941 67.3694 208.297 66.5329 207.745 65.6416C207.248 64.8397 206.831 64.8685 206.205 65.506C203.94 67.8108 202.19 70.5021 200.523 73.2367C195.284 81.8299 191.048 90.9336 187.073 100.17C184.63 105.844 182.044 111.455 179.532 117.1C177.667 121.291 175.816 125.491 173.959 129.691C173.853 128.474 172.608 128.436 171.976 127.767C173.235 125.252 174.465 122.722 175.755 120.227C181.052 109.969 185.507 99.3277 190.076 88.7356C192.577 82.9404 195.534 77.3443 197.781 71.4309C198.816 68.705 199.753 65.9445 200.785 63.2156C201.187 62.1512 200.581 62.2147 199.894 62.258C196.218 62.4887 192.557 62.8983 188.866 62.982C180.911 63.1637 172.968 63.233 165.211 61.0955C162.728 60.4118 160.305 59.5032 158.273 57.8013C156.96 56.7023 155.879 55.4186 155.56 53.7023C155.117 51.3196 156.494 49.6668 159.282 49.0091C163.308 48.06 167.386 48.2908 171.43 48.6716C178.48 49.335 185.415 50.7225 192.278 52.4763C193.085 52.684 193.838 53.2148 194.93 52.9927C193.324 51.5417 191.801 50.1917 190.309 48.81C183.791 42.7697 177.965 36.1438 173.505 28.4045C170.637 23.4257 168.585 18.1354 168.013 12.3604C167.746 9.66624 167.858 7.00665 169.056 4.47687C170.007 2.46632 171.387 1.00095 173.563 0.372111C173.712 0.328842 173.818 0.129806 173.945 0C175.094 0 176.244 0 177.394 0L177.385 0.00288458ZM184.348 18.4383C182.509 18.4584 181.564 19.569 181.423 21.5219C181.144 25.3843 182.371 28.9064 184.073 32.2612C188.746 41.4803 196.086 48.3254 204.035 54.608C204.791 55.2052 205.518 54.8446 205.555 53.8638C205.573 53.3994 205.438 52.9148 205.297 52.459C203.219 45.6831 200.868 39.014 197.52 32.7429C195.215 28.4247 192.64 24.294 188.95 20.9998C187.518 19.7219 185.978 18.594 184.348 18.4383ZM233.921 60.9484C236.413 60.9945 238.899 60.8445 241.359 60.507C244.955 60.0138 248.541 59.4455 251.568 57.1407C253.973 55.309 253.93 52.4388 251.447 50.6908C249.05 49.0033 246.354 48.6081 243.529 48.7812C236.856 49.1937 230.421 50.7658 224.084 52.8225C220.089 54.1177 216.241 55.7936 212.329 57.3109C211.734 57.5417 211.757 57.9167 211.72 58.2484C211.663 58.7676 212.183 58.759 212.545 58.8195C219.623 59.9907 226.739 60.8041 233.919 60.9455L233.921 60.9484ZM183.506 37.5054C183.774 37.0727 183.489 36.8621 183.351 36.64C181.908 34.3237 180.71 31.8862 179.905 29.2785C178.943 26.1516 178.109 23.0074 179.046 19.6873C179.902 16.6527 182.541 15.0864 185.553 15.9316C189.237 16.9671 191.752 19.5777 194.045 22.4334C195.241 23.9219 196.307 25.517 197.434 27.0632C196.215 24.7036 195.247 22.2459 193.962 19.9238C191.841 16.0873 189.438 12.5047 186.553 9.24797C184.19 6.57973 181.523 4.2663 178.049 3.13843C174.491 1.98459 171.947 3.499 170.987 7.08742C170.168 10.1508 170.7 13.1075 171.384 16.0469C172.798 22.1161 175.784 27.4382 179.408 32.4314C180.678 34.1823 181.851 36.0198 183.506 37.5054ZM202.544 59.209C201.5 57.7263 200.04 57.5705 198.756 57.1522C193.12 55.3061 187.346 54.0225 181.521 52.9321C175.589 51.8215 169.637 50.9821 163.593 51.0946C162.133 51.1206 160.647 51.2158 159.242 51.8215C158.012 52.3523 157.98 53.1283 158.595 54.1061C159.463 55.4878 160.716 56.4369 162.164 57.1234C167.34 59.5782 172.933 60.0109 178.506 60.2705C184.047 60.5301 189.602 60.3888 195.14 59.9676C197.557 59.783 199.963 59.4772 202.541 59.2118L202.544 59.209ZM240.238 91.9461C243.032 91.8971 243.541 90.9827 242.127 88.6663C241.428 87.5211 240.615 86.4567 239.698 85.4702C234.968 80.376 229.605 76.0001 224.138 71.7511C219.876 68.4367 215.508 65.2666 210.958 62.356C210.484 62.0532 209.97 61.681 209.404 62.2176C208.748 62.8378 209.378 63.2935 209.668 63.7003C211.588 66.38 213.473 69.0915 215.511 71.679C220.371 77.8463 225.449 83.8116 231.884 88.4298C234.433 90.2586 237.132 91.7586 240.236 91.9461H240.238ZM242.874 46.0235C246.13 45.9312 249.311 46.2341 252.234 47.9533C255.488 49.8687 256.919 53.2956 255.623 56.3215C254.919 57.9657 253.605 59.0676 252.142 60.0224C250.783 60.908 249.234 61.3926 247.423 62.2349C252.499 62.0012 257.111 61.3753 261.546 59.8407C263.98 58.9984 266.328 57.9138 268.139 55.9378C270.303 53.5754 270.386 50.8696 268.262 48.4581C266.101 46.0005 263.27 44.7803 260.1 44.4543C254.289 43.8572 248.584 44.7803 242.877 46.0206L242.874 46.0235Z" fill="white"/>
<path d="M373.815 140.277C371.953 141.082 370.033 141.549 367.978 141.396C364.627 141.148 362.753 139.236 362.621 135.855C362.61 135.575 362.702 135.275 362.388 134.929C361.54 135.624 361.144 136.666 360.489 137.491C359.566 138.659 358.652 139.827 357.382 140.638C355.08 142.1 352.499 140.834 352.258 138.094C352.166 137.067 352.243 136.025 352.243 134.776C351.128 135.685 350.596 136.824 349.8 137.736C348.881 138.786 347.941 139.816 346.754 140.557C344.34 142.066 341.903 141.094 341.201 138.316C340.644 136.1 340.971 133.899 341.756 131.814C343.676 126.72 346.561 122.399 351.913 120.42C354.672 119.399 357.439 119.28 359.784 121.591C360.069 121.871 360.33 122.145 360.325 122.56C360.319 122.918 360.147 123.212 359.816 123.368C359.35 123.587 359.224 123.215 359.115 122.903C358.396 120.85 355.143 120.803 353.807 121.853C349.464 125.26 346.288 129.549 344.236 134.678C343.877 135.575 343.641 136.498 343.682 137.482C343.759 139.47 344.915 140.162 346.659 139.184C347.926 138.474 348.918 137.416 349.809 136.282C351.855 133.674 353.407 130.755 355.005 127.862C356.56 125.047 357.161 124.04 360.905 125.064C359.126 127.706 357.686 130.507 356.442 133.415C355.833 134.837 355.563 136.348 355.39 137.871C355.321 138.466 355.186 139.236 355.859 139.545C356.569 139.87 357.241 139.542 357.81 139.002C360.034 136.899 361.517 134.274 362.972 131.632C364.446 128.955 365.653 126.114 367.665 123.769C369.68 121.418 372.122 119.901 375.37 120.062C377.41 120.163 378.776 121.256 378.994 123.056C379.215 124.902 377.859 127.224 376.287 127.715C375.939 127.824 375.631 127.822 375.353 127.568C374.95 127.207 375.353 126.945 375.508 126.723C376.18 125.782 376.813 124.836 377.031 123.665C377.364 121.876 376.373 120.968 374.68 121.507C373.358 121.928 372.309 122.75 371.421 123.766C368.125 127.53 365.725 131.681 365.963 136.928C366.058 139.005 367.239 140.208 369.303 140.297C373.054 140.456 375.295 138.183 376.787 135.2C381.247 126.296 385.512 117.29 390.205 108.504C390.386 108.166 390.579 107.834 390.792 107.517C392.237 105.351 392.688 104.067 396.666 105.166C394.669 107.901 392.961 110.765 391.384 113.704C388.441 119.185 385.552 124.692 382.65 130.196C382.431 130.611 382.187 131.052 382.339 131.566L382.27 131.58L382.311 131.586C385.481 127.553 389.401 124.461 394.002 122.234C395.301 121.605 396.212 121.429 397.445 121.562C396.367 123.578 395.281 125.517 394.283 127.504C392.801 130.452 391.297 133.397 390.455 136.62C390.257 137.375 390.171 138.134 390.257 138.904C390.392 140.124 391.211 140.56 392.298 139.96C393.229 139.446 394.008 138.714 394.608 137.837C396.048 135.737 397.474 133.651 398.402 131.225C399.738 127.741 401.75 124.66 404.748 122.347C407.147 120.495 409.88 119.664 412.915 119.915C414.381 120.036 415.554 120.749 416.485 121.833C416.833 122.237 416.95 122.831 416.387 123.232C415.654 123.754 415.64 122.952 415.421 122.632C414.203 120.85 412.246 120.682 410.01 122.214C406.185 124.836 403.701 128.557 401.589 132.584C400.805 134.081 400.146 135.622 400.146 137.349C400.146 139.68 401.057 140.237 403.104 139.161C404.67 138.336 405.748 136.977 406.777 135.598C408.544 133.23 410.007 130.669 411.329 128.032C412.924 124.848 413.703 124.432 417.37 125.044C415.562 127.793 413.999 130.628 412.798 133.654C412.188 135.189 411.878 136.764 411.912 138.411C411.938 139.66 412.703 140.093 413.78 139.395C414.372 139.011 414.913 138.489 415.35 137.929C417.209 135.549 418.798 133.011 420.051 130.239C421.583 126.849 423.517 123.711 426.759 121.663C429.576 119.883 432.579 119.24 435.746 120.662C436.479 120.991 436.669 120.656 436.919 120.149C438.913 116.07 440.913 111.991 442.905 107.909C443.218 107.266 443.483 106.597 443.799 105.954C444.877 103.758 445.911 103.254 448.288 103.718C448.742 103.807 449.205 103.862 449.785 103.952C447.509 107.306 445.561 110.754 443.713 114.253C440.138 121.02 436.335 127.677 433.614 134.869C433.229 135.887 433.105 136.911 433.157 137.975C433.229 139.519 434.171 140.075 435.582 139.374C436.864 138.737 437.686 137.603 438.496 136.478C440.35 133.902 441.597 130.992 443.086 128.211C444.767 125.07 447.136 122.54 450.352 120.901C451.343 120.397 452.401 120.053 453.516 120.123C456.016 120.276 457.496 121.995 457.628 124.761C457.821 128.82 456.122 132.198 453.838 135.356C453.306 136.089 452.697 136.781 452.036 137.398C451.148 138.229 451.449 138.769 452.326 139.279C453.685 140.075 455.565 139.709 456.924 138.411C459.364 136.083 460.813 133.123 462.161 130.109C462.48 129.397 462.83 128.996 463.638 129.238V129.815C462.586 131.771 461.546 133.732 460.482 135.682C459.787 136.954 458.844 138.039 457.798 139.034C455.806 140.92 453.18 141.2 450.843 139.712C450.268 139.345 449.814 139.354 449.288 139.718C448.538 140.24 447.713 140.609 446.842 140.886C443.675 141.901 441.31 140.424 440.859 137.147C440.804 136.746 440.959 136.167 440.408 136.057C439.971 135.971 439.844 136.507 439.632 136.796C438.747 137.99 437.904 139.247 436.637 140.049C435.309 140.889 433.915 141.751 432.243 140.854C430.63 139.986 430.133 138.492 429.992 136.798C429.961 136.429 430.09 136.031 429.685 135.616C428.877 136.138 428.452 137.012 427.935 137.759C426.854 139.328 425.38 140.364 423.655 141.016C421.75 141.734 419.296 140.199 418.836 138.036C418.678 137.297 418.402 136.556 418.597 135.639C417.836 135.913 417.632 136.524 417.292 136.98C416.353 138.246 415.453 139.53 414.125 140.453C411.743 142.115 409.194 141.053 408.648 138.18C408.426 137.015 408.849 135.898 408.762 134.517C407.696 135.841 406.71 136.983 405.82 138.197C405.121 139.149 404.222 139.845 403.276 140.488C400.715 142.221 397.859 140.851 397.511 137.742C397.459 137.283 397.56 136.787 397.132 136.397C396.379 136.758 396.2 137.58 395.72 138.148C394.508 139.588 393.295 141.019 391.286 141.319C388.308 141.763 386.28 139.625 386.78 136.64C387.216 134.026 388.421 131.753 389.766 129.532C390.162 128.877 390.539 128.208 390.918 127.542C391.214 127.025 391.496 126.454 390.935 125.984C390.432 125.563 389.872 125.759 389.346 126.079C387.659 127.103 386.245 128.439 384.909 129.873C382.115 132.87 380.129 136.412 378.117 139.94C377.528 140.975 375.169 141.841 374.131 141.373C373.763 141.206 374.209 140.877 374.131 140.618C374.249 140.468 374.364 140.297 374.177 140.15C374.123 140.11 373.944 140.228 373.824 140.274L373.815 140.277ZM452.596 134.837C454.395 131.897 455.956 129.013 456.174 125.606C456.255 124.36 456.352 122.993 455.056 122.266C453.657 121.481 452.498 122.375 451.355 123.074C451.274 123.123 451.208 123.195 451.136 123.258C447.107 126.835 444.96 131.422 444.095 136.666C443.917 137.753 443.905 138.95 445.055 139.596C446.173 140.225 447.253 139.827 448.294 139.23C449.139 138.748 449.714 138.272 448.978 137.228C448.581 136.666 448.639 135.947 448.653 135.272C448.685 133.822 449.369 132.795 450.495 132.777C451.688 132.757 452.312 133.556 452.596 134.834V134.837ZM423.144 139.406C423.644 139.426 424.084 139.236 424.489 138.973C425.664 138.215 426.618 137.22 427.455 136.106C430.441 132.122 432.823 127.764 435.18 123.397C435.453 122.889 436.108 122.358 435.648 121.729C435.151 121.051 434.326 121.063 433.539 121.124C432.95 121.17 432.427 121.389 431.947 121.709C427.153 124.928 423.77 129.261 421.839 134.719C421.437 135.852 421.218 137.035 421.701 138.223C421.968 138.884 422.336 139.412 423.141 139.406H423.144Z" fill="white"/>
<path d="M223.943 173.366C223.961 168.039 223.972 162.714 224.007 157.386C224.009 156.924 223.734 156.269 224.593 156.171C225.553 156.059 225.676 156.581 225.671 157.38C225.642 160.983 225.656 164.583 225.659 168.186C225.659 169.914 225.665 171.641 225.671 173.366H223.946H223.943Z" fill="white"/>
<path d="M171.97 127.77C172.603 128.442 173.847 128.476 173.953 129.694C172.433 133.181 170.568 136.461 168.059 139.334C166.211 141.448 164.144 141.875 162.544 140.557C161.676 139.842 161.25 138.913 161.25 137.785C161.25 136.85 161.25 135.916 161.25 134.638C160.443 135.676 159.831 136.484 159.195 137.277C158.175 138.552 157.103 139.787 155.672 140.615C153.137 142.083 150.516 140.794 150.045 137.866C149.984 137.494 149.933 137.122 149.835 136.47C148.953 137.396 148.223 138.16 147.496 138.924C145.731 140.771 143.555 141.382 141.087 140.987C140.647 140.918 140.291 140.9 139.859 141.047C137.046 142.005 134.988 141.342 133.16 138.849C132.787 138.342 132.557 138.515 132.275 138.812C130.367 140.851 128.045 141.466 125.352 140.9C125.102 140.848 124.809 140.998 124.538 141.068C121.765 141.783 119.104 141.515 117.445 138.414C115.35 140.534 112.87 141.783 109.875 141.316C107.792 140.99 105.28 139.64 104.88 135.397C104.053 136.447 103.363 137.39 102.604 138.273C101.825 139.178 101.055 140.098 99.9574 140.664C97.3191 142.014 94.9107 140.635 94.6722 137.638C94.4653 135.045 95.6924 132.901 96.8219 130.735C97.4628 129.506 98.2215 128.338 98.8797 127.115C99.762 125.479 99.3079 124.467 97.5318 123.997C97.207 123.91 96.8765 123.861 96.5489 123.783C95.2039 123.466 94.4624 123.772 93.902 125.28C92.1517 129.994 90.3296 134.713 86.8866 138.538C86.3779 139.103 85.8146 139.646 85.1967 140.078C83.9092 140.981 82.4866 141.688 80.9232 140.921C79.3511 140.15 78.8654 138.622 78.6211 136.992C78.5493 136.504 79.0034 135.731 78.4084 135.59C77.8509 135.457 77.6583 136.299 77.3393 136.735C76.3765 138.053 75.3965 139.357 74.0113 140.266C71.0712 142.196 67.9329 140.822 67.3379 137.381C67.2603 136.934 67.3494 136.426 66.9701 135.982C66.0993 136.478 65.8234 137.41 65.2572 138.085C64.3576 139.158 63.4466 140.199 62.1993 140.874C60.6905 141.688 59.1385 141.598 57.7705 140.678C56.3853 139.747 55.9772 138.319 56.2416 136.628C56.7244 133.55 58.3654 131.015 59.8858 128.413C60.3284 127.657 61.2394 126.731 60.4117 125.987C59.5668 125.228 58.6298 126.134 57.8941 126.697C53.5401 130.025 50.5655 134.468 48.1054 139.271C47.3438 140.756 46.3983 141.495 44.7457 141.316C43.553 141.189 42.6104 141.564 41.6792 142.429C40.271 143.736 38.5696 144.645 36.5952 144.893C33.362 145.299 31.3646 143.825 30.807 140.577C30.4104 138.267 30.6633 135.994 31.2295 133.732C31.3732 133.158 31.8675 132.307 31.3761 132.001C30.7524 131.615 30.396 132.552 29.9966 132.959C26.7662 136.25 23.3606 139.32 19.3687 141.671C16.7965 143.185 13.98 143.921 11.037 144.013C7.87857 144.111 4.94425 141.437 4.34934 138.174C3.4268 133.121 4.40969 128.335 6.37836 123.702C8.10848 119.629 10.3272 115.836 13.1868 112.45C13.7328 111.804 13.615 111.547 12.908 111.212C11.3905 110.494 10.0082 109.548 8.72638 108.463C6.64851 106.709 5.84093 104.064 6.63127 101.757C6.77784 101.327 7.00775 100.992 7.32676 100.692C7.58255 100.45 7.86994 100.234 8.21482 100.412C8.55969 100.594 8.58556 100.963 8.47635 101.295C7.07386 105.613 10.218 107.448 12.9712 109.386C14.687 110.595 14.7904 110.485 16.2562 108.933C21.1678 103.735 26.6168 99.2701 33.3907 96.7547C38.1442 94.9893 43.03 93.9451 48.1255 95.1941C51.3875 95.9932 54.9598 98.6614 54.3448 103.245C53.9683 106.057 52.1721 108.013 50.0741 109.657C46.4529 112.493 42.1304 113.563 37.693 114.146C31.2899 114.988 24.9068 114.858 18.6243 113.171C17.8713 112.969 17.4517 113.223 17.0666 113.788C12.9396 119.817 9.06551 125.97 7.42448 133.236C7.00775 135.085 6.87268 136.934 7.52507 138.769C8.45336 141.382 10.3387 142.501 13.0862 142.164C16.0291 141.8 18.6157 140.557 20.9149 138.803C28.7349 132.832 35.1323 125.615 39.6703 116.811C40.0957 115.989 40.7078 115.329 41.524 114.87C42.1304 114.53 42.7828 114.23 43.3979 114.72C43.9496 115.155 44.0818 115.822 44.0272 116.529C43.9382 117.74 43.3605 118.706 42.6046 119.606C38.3569 124.663 35.5146 130.383 34.4627 136.951C34.2788 138.102 34.2328 139.256 34.388 140.396C34.7386 142.948 36.5923 143.883 38.8656 142.663C41.0153 141.509 42.5816 139.712 44.0646 137.814C46.7403 134.387 48.4848 130.429 50.5224 126.633C51.1116 125.537 51.7093 124.444 52.3847 123.402C54.066 120.801 54.5287 120.642 57.8769 121.363C55.1523 124.216 53.5947 127.741 51.741 131.119C52.9911 130.412 53.8504 129.244 54.8218 128.234C57.8165 125.11 61.386 122.927 65.4469 121.519C65.8808 121.369 66.47 121.144 66.766 121.6C67.0074 121.972 66.5505 122.396 66.3522 122.751C64.1134 126.772 61.9004 130.801 60.3858 135.172C60.0093 136.259 59.6271 137.361 59.699 138.535C59.7766 139.804 60.4778 140.237 61.6418 139.778C62.6534 139.38 63.3949 138.63 64.0616 137.802C66.243 135.099 67.7489 132.004 69.3181 128.926C71.1948 125.243 73.5457 121.949 77.6986 120.495C79.8512 119.742 82.0095 119.58 84.1247 120.524C84.9754 120.902 85.3059 120.564 85.6623 119.88C87.812 115.758 89.8554 111.584 91.7637 107.341C93.5887 103.283 93.8531 103.179 98.4342 103.949C95.6292 108.111 93.3042 112.505 90.9562 116.883C88.1023 122.203 85.2485 127.522 82.9177 133.1C82.4176 134.298 81.9808 135.515 81.7681 136.801C81.61 137.771 81.4376 138.806 82.455 139.386C83.504 139.983 84.3604 139.374 85.1536 138.676C86.5015 137.488 87.4815 136.014 88.3926 134.491C91.7178 128.926 93.9882 122.955 95.2067 116.583C95.2958 116.113 95.428 115.643 95.6148 115.205C96.1494 113.938 97.4915 113.742 98.3624 114.821C99.3338 116.024 99.3481 117.339 98.7733 118.747C98.2273 120.079 97.1151 120.945 95.9683 122.249C98.0807 122.24 99.9143 122.39 101.748 122.125C104.271 121.761 104.676 122.188 103.645 124.533C102.412 127.34 100.992 130.06 99.6959 132.838C98.986 134.361 98.4285 135.945 98.2043 137.626C98.1094 138.333 98.1439 139.066 98.7618 139.438C99.4545 139.853 100.164 139.519 100.705 138.976C103.113 136.556 104.837 133.7 106.102 130.53C107.852 126.137 110.421 122.425 114.902 120.411C115.207 120.273 115.517 120.117 115.842 120.059C117.526 119.753 119.253 119.497 120.44 121.132C121.567 122.681 120.765 124.239 120.003 125.575C117.877 129.304 114.367 131.038 110.318 131.779C109.398 131.947 109.048 132.322 108.829 133.178C108.493 134.499 108.341 135.824 108.45 137.173C108.625 139.36 110.255 140.687 112.304 140.072C114.778 139.331 117.023 138.206 117.537 135.206C117.69 134.318 118.175 133.484 119.193 133.227C119.883 133.054 119.943 132.391 120.184 131.915C122.027 128.286 123.82 124.634 125.648 120.997C126.283 119.733 127.182 118.683 128.389 117.922C129.576 117.172 130.812 117.123 132.083 117.682C132.468 117.853 132.752 118.138 132.583 118.579C132.413 119.018 132.034 118.819 131.718 118.741C129.812 118.265 128.481 119.076 128.033 121.003C127.582 122.952 127.875 124.807 128.743 126.596C129.349 127.842 129.858 129.126 130.324 130.438C131.476 133.683 130.329 136.219 128.185 138.555C127.795 138.979 126.866 139.435 127.237 139.943C127.657 140.514 128.568 140.139 129.209 139.807C130.982 138.893 132.58 137.889 132.744 135.538C132.813 134.566 133.382 133.614 134.413 133.178C134.954 132.95 135.163 132.492 135.425 132.027C137.316 128.69 138.888 125.194 140.564 121.75C141.308 120.224 142.265 118.856 143.725 117.922C144.909 117.166 146.153 117.111 147.421 117.691C147.763 117.847 148.159 118.089 147.984 118.554C147.835 118.954 147.455 118.833 147.119 118.764C144.926 118.326 143.82 119.084 143.325 121.259C142.837 123.405 143.374 125.347 144.38 127.21C144.975 128.315 145.395 129.489 145.737 130.683C146.622 133.758 145.659 136.351 143.515 138.578C143.098 139.011 142.595 139.363 142.009 139.853C143.903 140.332 145.625 139.674 147.119 137.935C148.8 135.979 150.022 133.744 150.956 131.332C152.551 127.216 154.91 123.662 158.776 121.346C161 120.016 163.495 119.768 166.018 119.993C167.309 120.108 168.332 120.873 169.128 121.879C169.473 122.318 169.588 122.895 169.024 123.264C168.372 123.694 168.28 123.062 168.027 122.667C167.148 121.291 165.872 120.878 164.288 121.406C162.799 121.905 161.601 122.843 160.495 123.927C157.132 127.227 154.505 131.012 153.039 135.526C152.608 136.853 152.192 138.443 153.683 139.299C155.1 140.113 156.23 138.913 157.178 138.022C159.908 135.46 161.615 132.157 163.423 128.941C163.705 128.442 163.952 127.923 164.236 127.424C165.895 124.516 166.461 124.279 169.973 125.061C168.248 127.623 166.797 130.305 165.596 133.124C165.254 133.923 164.961 134.727 165.015 135.619C165.038 135.965 165.058 136.328 165.4 136.493C165.765 136.669 166.024 136.389 166.277 136.17C167.608 135.024 168.467 133.519 169.381 132.059C170.269 130.64 171.108 129.186 171.97 127.75V127.77ZM18.5381 111.89C27.2692 113.679 35.5893 113.863 43.7916 111.157C47.042 110.084 49.8729 108.209 51.2811 104.909C52.7583 101.448 52.1519 98.1191 47.9301 96.8124C47.0075 96.5268 46.0764 96.3711 45.1136 96.3278C38.6501 96.0509 33.0516 98.2316 28.0739 102.267C24.6481 105.045 21.6103 108.189 18.5381 111.887V111.89ZM70.1314 136.614C70.1745 137.724 70.2205 138.723 71.1172 139.21C72.103 139.747 72.9623 139.115 73.7296 138.538C74.77 137.759 75.6063 136.77 76.3737 135.723C79.1758 131.886 81.4491 127.729 83.7138 123.567C84.0357 122.976 84.7455 122.355 84.2397 121.678C83.7138 120.971 82.7855 121.034 81.9722 121.176C81.5612 121.248 81.1473 121.427 80.7852 121.64C77.325 123.685 74.7844 126.63 72.7209 130.028C71.4477 132.12 70.2579 134.254 70.1314 136.614ZM125.927 122.751C124.346 125.915 122.762 129.079 121.19 132.25C121.024 132.587 120.834 132.956 121.288 133.262C121.943 133.703 121.894 134.399 121.937 135.071C122.038 136.634 122.369 138.091 123.688 139.152C124.254 139.608 124.648 139.597 125.133 139.051C126.337 137.704 126.886 136.106 127.047 134.344C127.401 130.447 126.171 126.671 125.927 122.753V122.751ZM141.434 122.572C139.595 126.1 137.902 129.244 136.488 132.529C136.422 132.685 136.391 132.997 136.474 133.057C137.463 133.784 137.109 134.886 137.302 135.838C137.549 137.067 137.899 138.247 138.954 139.089C139.552 139.568 140.003 139.614 140.526 138.994C141.541 137.785 142.185 136.406 142.308 134.84C142.621 130.853 141.877 126.942 141.434 122.572ZM109.703 130.853C111.312 130.793 112.525 130.346 113.652 129.772C116.419 128.361 118.607 126.388 119.262 123.154C119.394 122.508 119.529 121.744 118.868 121.303C118.161 120.832 117.489 121.228 116.902 121.669C113.752 124.04 111.588 127.187 109.703 130.85V130.853ZM123.259 140.084C121.843 139.048 121.302 137.595 120.969 135.994C119.842 137.188 119.612 138.463 120.377 139.504C121.098 140.488 122.067 140.623 123.259 140.084ZM136.304 135.861C135.192 137.266 135.048 138.633 135.773 139.55C136.477 140.445 137.322 140.592 138.466 139.98C137.167 139.014 136.704 137.58 136.304 135.861ZM31.5313 131.54C31.4996 131.572 31.4364 131.612 31.4422 131.635C31.4565 131.704 31.4996 131.765 31.5313 131.828C31.5629 131.797 31.6261 131.759 31.6204 131.733C31.606 131.664 31.5629 131.603 31.5313 131.54Z" fill="white"/>
<path d="M343.531 147.304C343.022 148.123 342.321 148.083 341.674 148.04C336.039 147.653 331.748 144.754 331.909 138.238C332.024 133.608 333.544 129.397 335.234 125.237C337.395 119.921 339.798 114.705 342.071 109.432C342.603 108.195 342.939 106.897 342.928 105.524C342.916 103.692 342.025 103.043 340.246 103.617C338.898 104.053 337.8 104.932 336.731 105.795C334.418 107.661 332.36 109.813 330.486 112.118C323.425 120.789 317.582 130.25 312.472 140.188C311.794 141.509 311.185 142.937 309.429 143.124C308.612 143.211 307.808 143.24 307.227 142.441C306.65 141.645 307.216 141.068 307.558 140.479C311.231 134.168 314.171 127.524 316.208 120.512C317.775 115.127 319.054 109.666 319.125 104.001C319.143 102.631 318.944 101.37 317.617 100.672C316.303 99.9825 315.099 100.554 313.972 101.223C312.168 102.293 310.903 103.929 309.613 105.538C304.5 111.91 300.088 118.75 296.467 126.065C293.751 131.551 291.303 137.173 288.848 142.787C287.954 144.829 286.328 145.204 284.687 145.008C283.652 144.884 283.388 144.189 283.914 143.349C287.311 137.923 289.739 132.033 292.058 126.102C294.866 118.928 297.519 111.691 298.508 103.98C298.792 101.765 298.597 99.544 297.783 97.4585C296.864 95.1046 295.062 93.8412 292.521 93.6768C288.874 93.4402 285.647 94.646 282.523 96.4114C276.418 99.8584 271.291 104.353 267.733 110.442C264.966 115.178 263.408 120.267 264.684 125.837C266.112 132.071 271.938 134.537 277.416 131.955C282.089 129.751 284.687 125.67 285.629 120.685C286.23 117.518 285.098 115.346 281.362 115.614C280.726 115.66 279.675 115.856 279.617 115.135C279.545 114.227 280.701 114.362 281.313 114.284C285.977 113.687 288.388 116.955 287.555 121.357C286.704 125.863 283.856 129.198 280.037 131.615C277.479 133.233 274.789 134.534 271.581 134.153C265.767 133.467 261.218 128.459 261.043 122.534C260.873 116.782 262.997 111.806 266.365 107.37C271.501 100.608 278.077 95.6989 286.236 93.2325C289.63 92.2056 293.182 91.8826 296.631 93.3854C299.677 94.7123 300.959 97.294 301.563 100.337C302.393 104.52 301.315 108.521 300.364 112.539C299.893 114.524 299.039 116.364 298.416 118.288C298.298 118.654 297.824 119.153 298.407 119.393C298.864 119.58 299.077 119.032 299.269 118.646C301.939 113.28 305.44 108.466 309.179 103.819C311.196 101.309 313.817 99.668 316.979 99.0507C320.149 98.4334 322.402 100.216 322.695 103.461C322.908 105.824 322.557 108.14 322.077 110.448C320.933 115.943 319.312 121.3 317.415 126.575C317.392 126.642 317.47 126.743 317.499 126.826C317.976 127.014 318.056 126.599 318.232 126.342C321.203 122 324.273 117.731 327.537 113.606C330.633 109.695 333.76 105.812 337.898 102.928C339.39 101.889 340.985 101.009 342.801 100.655C345.258 100.173 346.672 101.217 346.965 103.706C347.307 106.611 346.212 109.184 344.997 111.682C341.893 118.054 338.87 124.45 336.955 131.309C335.935 134.967 334.955 138.613 335.809 142.487C336.461 145.446 338.275 147.053 341.298 147.114C341.994 147.128 342.712 146.958 343.528 147.313L343.531 147.304Z" fill="white"/>
<path d="M237.495 94.1326C237.963 94.3721 238.434 94.6086 238.903 94.848C238.36 95.624 236.796 95.7509 236.992 96.7403C237.141 97.4961 238.549 97.3807 239.386 97.6778C242.148 98.6585 244.812 99.8008 247.085 101.716C251.517 105.449 251.206 111.403 246.395 114.726C244.067 116.332 241.469 117.232 238.707 117.714C238.018 117.835 237.268 117.778 236.63 118.418C238.503 119.24 240.311 120.059 242.018 121.095C248.223 124.859 249.137 131.71 244.039 136.856C238.564 142.383 231.755 143.921 224.292 143.24C219.027 142.758 213.928 141.492 209.037 139.467C208.399 139.201 207.962 139.363 207.467 139.706C202.536 143.142 197.113 144.287 191.247 143.032C188.752 142.498 186.755 141.252 185.942 138.578C185.255 136.32 186.097 134.609 187.746 133.225C190.454 130.957 193.624 131.119 196.742 131.926C200.096 132.795 203.001 134.742 206.039 136.346C206.861 136.781 207.301 136.741 207.95 135.991C212.051 131.283 214.894 125.805 217.664 120.278C221.504 112.626 225.895 105.348 231.839 99.1114C232.186 98.7451 232.839 98.3816 232.64 97.8422C232.439 97.2941 231.712 97.5076 231.218 97.4441C225.734 96.7403 220.242 96.6768 214.77 97.5134C209.114 98.3787 203.57 99.6249 198.946 103.311C196.414 105.331 194.224 107.653 193.149 110.811C191.416 115.914 194.598 119.927 199.987 119.497C203.93 119.182 206.312 116.95 207.66 113.37C207.821 112.94 207.692 112.101 208.502 112.323C209.255 112.531 209.014 113.255 208.907 113.797C208.011 118.297 202.961 121.735 198.423 120.968C197.009 120.728 195.607 120.46 194.345 119.728C189.545 116.938 188.519 111.221 191.911 106.271C195.239 101.41 199.941 98.4826 205.49 97.0288C214.307 94.7211 223.283 94.4009 232.232 96.0826C234.661 96.5384 235.937 95.2836 237.495 94.1269V94.1326ZM233.776 116.422C238.822 116.604 244.044 113.304 245.849 109.107C247.042 106.334 246.381 103.646 244.007 101.809C242.127 100.352 239.937 99.5758 237.696 98.8403C236.273 98.373 235.575 98.7133 234.813 99.9047C231.41 105.227 228.255 110.702 224.99 116.107C220.521 123.512 216.569 131.289 210.272 137.43C209.68 138.007 209.982 138.258 210.617 138.498C212.899 139.366 215.213 140.139 217.607 140.598C221.395 141.322 225.165 142.213 229.094 141.624C234.195 140.86 238.282 138.46 241.191 134.211C244.28 129.7 243.001 124.574 238.245 121.992C236.69 121.147 235.014 120.573 233.336 120.016C231.298 119.344 229.192 118.868 227.26 117.89C226.884 117.7 226.418 117.506 226.556 116.95C226.671 116.482 227.065 116.243 227.516 116.2C228.134 116.142 228.758 116.107 229.376 116.139C230.999 116.223 232.62 116.347 233.773 116.425L233.776 116.422ZM205.625 138.091C204.579 137.26 203.438 136.894 202.372 136.409C199.731 135.203 197.199 133.689 194.233 133.351C191.675 133.06 189.706 134.358 189.267 136.614C188.873 138.627 190.528 140.912 192.917 141.365C197.598 142.25 201.757 140.932 205.625 138.094V138.091Z" fill="white"/>
<path d="M174.048 156.904C177.844 156.884 180.353 159.434 180.402 163.311C180.454 167.312 177.864 169.801 174.194 169.957C170.691 170.104 167.759 167.052 167.708 163.446C167.656 159.748 170.395 156.921 174.048 156.904ZM169.541 163.195C169.487 166.083 171.375 168.226 174.039 168.307C176.626 168.385 178.735 166.175 178.764 163.357C178.79 160.706 176.729 158.557 174.117 158.508C171.556 158.459 169.593 160.472 169.541 163.195Z" fill="white"/>
<path d="M353.394 156.89C356.521 156.907 358.053 158.34 357.861 160.735C357.783 161.71 356.688 162.37 356.812 163.103C356.941 163.862 358.059 164.349 358.26 165.304C358.539 166.628 358.194 167.793 357.243 168.716C355.642 170.274 351.891 170.343 350.19 168.901C348.483 167.453 348.282 165.543 349.736 163.867C350.239 163.285 350.518 162.999 349.894 162.171C348.388 160.172 349.584 157.527 352.095 157.005C352.607 156.898 353.141 156.907 353.394 156.887V156.89ZM353.938 168.416C354.055 168.396 354.59 168.362 355.079 168.197C356.03 167.877 356.561 167.156 356.636 166.158C356.708 165.226 356.128 164.551 355.392 164.211C354.075 163.602 352.705 163.651 351.417 164.418C350.923 164.713 350.724 165.186 350.647 165.731C350.417 167.392 351.512 168.413 353.938 168.416ZM353.593 158.381C351.897 158.401 350.949 159.186 350.989 160.527C351.023 161.666 352.061 162.439 353.541 162.428C355.145 162.416 356.125 161.658 356.142 160.417C356.159 159.142 355.179 158.361 353.593 158.381Z" fill="white"/>
<path d="M341.423 156.916C343.903 156.921 345.067 157.671 345.579 159.572C345.843 160.556 345.783 161.496 345.044 162.252C344.55 162.757 344.489 163.065 345.024 163.654C347.145 165.979 346.159 168.884 343.139 169.677C341.822 170.023 340.592 169.931 339.342 169.611C336.641 168.924 335.753 165.823 337.606 163.729C337.862 163.44 338.736 163.262 337.98 162.549C336.839 161.476 336.876 160.065 337.422 158.825C337.997 157.518 339.276 156.973 340.71 156.918C340.949 156.91 341.187 156.918 341.426 156.918L341.423 156.916ZM341.259 168.413C341.888 168.439 342.509 168.399 343.067 168.067C343.837 167.609 344.452 167.046 344.397 166.031C344.343 164.969 343.725 164.294 342.8 164.046C341.647 163.738 340.44 163.628 339.336 164.332C338.115 165.111 337.963 166.645 339.023 167.629C339.65 168.209 340.406 168.465 341.259 168.413ZM341.371 158.395C339.684 158.364 338.825 159.027 338.822 160.365C338.816 161.675 339.687 162.388 341.345 162.434C342.874 162.477 343.995 161.666 344.035 160.487C344.081 159.183 343.119 158.427 341.371 158.395Z" fill="white"/>
<path d="M141.156 163.224C141.202 159.393 143.817 156.927 147.6 156.864C151.505 156.797 153.985 160.573 153.804 163.541C153.557 167.664 150.864 170.035 147.298 169.937C143.441 169.83 141.03 166.989 141.156 163.224ZM142.903 163.351C142.878 166.204 144.697 168.223 147.352 168.281C149.976 168.339 152.048 166.187 152.063 163.389C152.077 160.591 150.028 158.43 147.387 158.459C144.746 158.488 142.929 160.469 142.903 163.348V163.351Z" fill="white"/>
<path d="M259.491 169.536C258.218 169.994 257.465 169.654 256.982 168.604C256.804 168.217 256.528 167.877 256.287 167.522C255.241 165.979 253.982 165.491 252.194 165.861C251.643 165.976 251.502 166.276 251.505 166.761C251.505 167.482 251.459 168.206 251.496 168.924C251.533 169.628 251.125 169.683 250.594 169.714C249.958 169.752 249.777 169.472 249.78 168.864C249.806 165.212 249.798 161.557 249.806 157.905C249.806 157.478 249.757 156.953 250.407 156.988C252.496 157.092 254.62 156.61 256.675 157.34C258.273 157.908 259.167 159.07 259.417 160.72C259.664 162.353 259.262 163.862 257.914 164.831C256.934 165.535 257.141 166.042 257.701 166.807C258.322 167.649 258.856 168.558 259.491 169.533V169.536ZM251.496 161.453C251.51 164.594 251.878 164.894 255.005 164.289C255.379 164.216 255.755 164.124 256.112 163.991C256.77 163.743 257.218 163.273 257.488 162.616C258.304 160.64 257.123 158.773 254.971 158.652C252.647 158.521 251.488 159.455 251.496 161.453Z" fill="white"/>
<path d="M194.206 165.754C194.238 168.67 192.646 170.107 189.548 169.963C186.185 169.807 183.616 167.531 183.337 163.96C183.087 160.784 184.326 158.306 187.53 157.198C189.493 156.52 191.608 156.561 193.393 158.015C193.778 158.329 194.376 158.597 193.936 159.272C193.502 159.936 193.062 159.717 192.496 159.362C190.122 157.879 187.406 158.387 185.886 160.544C184.826 162.047 184.895 164.909 186.03 166.406C187.277 168.05 189.375 168.656 191.289 168.021C192.146 167.736 192.571 167.309 192.482 166.366C192.416 165.65 192.493 164.923 192.467 164.205C192.442 163.513 192.763 163.293 193.419 163.276C194.103 163.256 194.223 163.616 194.212 164.17C194.2 164.698 194.212 165.229 194.212 165.757L194.206 165.754Z" fill="white"/>
<path d="M281.842 163.394C281.951 162.125 281.948 160.942 282.494 159.812C283.385 157.971 284.653 156.846 286.811 156.89C288.906 156.93 290.188 158.072 290.938 159.872C291.883 162.134 291.86 164.456 290.984 166.735C290.142 168.924 288.245 170.147 286.239 169.888C284.132 169.616 282.365 167.831 282.043 165.604C281.934 164.845 281.902 164.078 281.842 163.391V163.394ZM289.863 163.386C289.863 162.517 289.78 161.664 289.495 160.83C288.978 159.307 287.929 158.433 286.601 158.47C285.342 158.508 284.104 159.558 283.819 160.997C283.512 162.558 283.486 164.153 283.805 165.719C284.081 167.081 285.377 168.223 286.581 168.275C287.877 168.33 289.015 167.413 289.495 165.939C289.765 165.108 289.897 164.26 289.86 163.386H289.863Z" fill="white"/>
<path d="M208.3 169.712C207.667 169.807 207.357 169.51 207.216 168.884C206.782 166.971 205.581 166.239 203.667 166.611C203.299 166.683 202.897 166.668 202.523 166.611C200.773 166.351 199.454 166.697 199.077 168.74C199.008 169.117 198.784 169.703 198.169 169.717C197.838 169.726 197.442 169.772 197.195 169.614C196.781 169.345 197.203 169.022 197.315 168.751C198.807 165.174 200.319 161.606 201.819 158.032C202.063 157.452 202.253 156.916 203.095 156.942C203.885 156.965 204.15 157.389 204.411 158.006C205.897 161.525 207.42 165.03 208.897 168.552C209.119 169.077 209.521 169.853 208.297 169.712H208.3ZM203.026 159.099C202.273 160.928 201.6 162.549 200.939 164.17C200.761 164.606 200.646 165.03 201.37 165.024C202.563 165.016 203.753 165.016 204.946 165.004C205.391 164.998 205.558 164.77 205.368 164.355C204.609 162.685 204.106 160.896 203.026 159.099Z" fill="white"/>
<path d="M263.46 163.426C263.46 161.649 263.494 159.872 263.446 158.095C263.423 157.215 263.73 156.89 264.607 156.965C266.587 157.135 268.622 156.575 270.556 157.464C272.294 158.26 273.174 159.728 273.039 161.739C272.901 163.772 271.866 165.125 270.018 165.636C269.001 165.918 267.969 166.12 266.903 165.901C265.748 165.667 265.026 165.941 265.219 167.34C265.282 167.811 265.196 168.301 265.227 168.78C265.273 169.458 265.003 169.735 264.316 169.726C263.632 169.714 263.402 169.449 263.451 168.76C263.515 167.851 263.463 166.937 263.463 166.022C263.463 165.157 263.463 164.294 263.463 163.429L263.46 163.426ZM265.115 161.456C265.121 164.635 265.472 164.917 268.639 164.257C268.92 164.199 269.199 164.133 269.475 164.055C270.691 163.709 271.26 162.864 271.317 161.629C271.401 159.809 270.424 158.741 268.601 158.664C266.275 158.562 265.114 159.492 265.118 161.456H265.115Z" fill="white"/>
<path d="M96.9055 163.293C96.9055 161.516 96.8969 159.74 96.9112 157.963C96.9141 157.562 96.8049 156.97 97.4544 156.996C99.5409 157.08 101.659 156.61 103.708 157.357C105.662 158.072 106.818 159.884 106.545 161.819C106.209 164.205 104.789 165.65 102.561 165.815C101.711 165.878 100.851 165.878 99.9979 165.846C98.9862 165.809 98.4517 166.166 98.5839 167.265C98.6299 167.643 98.5839 168.033 98.5781 168.416C98.5695 169.022 98.7448 169.691 97.7447 169.729C96.7043 169.766 96.8969 169.077 96.8969 168.477C96.894 166.749 96.8969 165.021 96.8969 163.291H96.9084L96.9055 163.293ZM98.5896 161.511C98.5935 163.688 99.676 164.602 101.837 164.254C102.165 164.202 102.501 164.182 102.823 164.104C103.662 163.905 104.24 163.449 104.519 162.566C105.243 160.265 104.145 158.704 101.705 158.649C99.6262 158.601 98.5877 159.555 98.5896 161.511Z" fill="white"/>
<path d="M319.169 156.982C319.982 156.982 320.795 157.002 321.609 156.976C322.189 156.956 322.537 157.178 322.566 157.772C322.597 158.465 322.198 158.672 321.563 158.655C320.56 158.629 319.545 158.727 318.551 158.626C317.372 158.508 316.999 159.03 317.062 160.106C317.085 160.487 317.053 160.876 317.013 161.257C316.947 161.886 317.226 162.116 317.835 162.105C318.456 162.093 319.083 162.105 319.698 162.174C321.778 162.419 323.123 163.844 323.221 165.861C323.307 167.64 322.074 169.094 320.203 169.703C318.353 170.306 316.726 169.732 315.099 169.002C314.499 168.734 314.286 168.289 314.614 167.606C315.01 166.784 315.447 167.294 315.884 167.496C317.203 168.108 318.511 168.618 320.005 168.001C321.048 167.571 321.491 166.807 321.41 165.76C321.33 164.739 320.68 164.049 319.689 163.914C318.511 163.752 317.309 163.74 316.117 163.732C315.424 163.726 315.165 163.455 315.22 162.783C315.338 161.3 315.47 159.817 315.527 158.332C315.571 157.216 316.094 156.835 317.16 156.944C317.821 157.014 318.496 156.956 319.166 156.956V156.979L319.169 156.982Z" fill="white"/>
<path d="M114.221 156.91C115.236 156.884 116.221 156.979 117.155 157.446C117.808 157.772 117.94 158.219 117.67 158.86C117.348 159.618 116.877 159.151 116.5 158.972C115.411 158.456 114.276 158.433 113.129 158.603C112.229 158.736 111.422 159.117 111.33 160.152C111.235 161.222 111.89 161.825 112.85 162.134C113.939 162.486 115.029 162.843 116.126 163.175C117.569 163.611 118.408 164.603 118.526 166.071C118.641 167.49 117.92 168.555 116.713 169.27C115.049 170.257 111.511 169.997 109.988 168.855C109.439 168.445 109.424 167.975 109.674 167.476C109.973 166.882 110.427 167.248 110.775 167.436C112.031 168.105 113.336 168.555 114.767 168.272C115.681 168.093 116.566 167.741 116.753 166.666C116.951 165.526 116.187 165.01 115.276 164.687C114.468 164.401 113.638 164.185 112.816 163.937C110.31 163.181 109.335 161.941 109.634 159.901C109.893 158.139 111.543 156.95 113.79 156.91C113.934 156.91 114.077 156.91 114.221 156.91Z" fill="white"/>
<path d="M364.822 156.976C365.779 156.976 366.733 156.959 367.69 156.976C368.842 156.999 369.193 157.616 368.543 158.597C367.859 159.63 367.06 160.585 366.316 161.577C366.04 161.943 365.799 162.209 366.494 162.509C368.9 163.553 369.739 165.007 369.213 166.997C368.727 168.835 366.727 170.159 364.508 169.957C363.431 169.859 362.336 169.66 361.353 169.094C360.723 168.731 360.393 168.312 360.792 167.591C361.197 166.862 361.66 167.306 362.117 167.525C363.339 168.111 364.563 168.587 365.957 168.082C367.112 167.663 367.678 166.89 367.509 165.67C367.342 164.488 366.509 164.032 365.419 163.856C364.85 163.764 364.057 164.19 363.75 163.472C363.405 162.667 364.011 162.085 364.477 161.45C365.083 160.625 366.35 159.719 366.026 158.92C365.738 158.211 364.209 158.739 363.235 158.658C362.712 158.615 362.183 158.635 361.66 158.643C361.128 158.655 360.87 158.413 360.867 157.873C360.861 157.316 361.016 156.953 361.672 156.967C362.724 156.991 363.775 156.973 364.824 156.973L364.822 156.976Z" fill="white"/>
<path d="M329.555 156.973C330.369 156.973 331.182 156.97 331.992 156.976C333.386 156.988 333.743 157.622 332.97 158.837C332.432 159.679 331.791 160.458 331.165 161.24C330.604 161.94 330.627 162.333 331.567 162.679C333.286 163.308 334.024 164.58 333.869 166.354C333.72 168.093 332.685 169.212 331.001 169.671C329.136 170.179 327.42 169.856 325.776 168.95C325.287 168.682 324.931 168.353 325.328 167.689C325.718 167.032 326.132 167.193 326.63 167.488C327.555 168.033 328.575 168.289 329.633 168.269C331.113 168.24 332.058 167.326 332.064 166.028C332.073 164.678 331.343 164.017 329.756 163.862C329.271 163.813 328.598 164.141 328.331 163.544C328.029 162.864 328.469 162.281 328.851 161.701C329.489 160.735 331.009 159.89 330.59 158.851C330.337 158.231 328.486 158.704 327.354 158.655C326.972 158.638 326.589 158.632 326.207 158.643C325.581 158.661 325.543 158.245 325.535 157.781C325.526 157.279 325.661 156.953 326.256 156.965C327.354 156.985 328.455 156.97 329.555 156.973Z" fill="white"/>
<path d="M241.834 156.907C243.13 156.754 244.311 157.334 245.441 158.11C246.01 158.502 246.021 158.946 245.651 159.448C245.286 159.944 244.926 159.867 244.449 159.506C242.788 158.248 240.98 158.15 239.236 159.229C237.227 160.469 236.779 162.457 237.193 164.632C237.56 166.565 238.9 167.669 240.742 168.171C242.096 168.54 243.314 168.142 244.352 167.283C244.886 166.839 245.225 166.867 245.645 167.358C246.136 167.929 245.829 168.258 245.372 168.65C242.225 171.333 236.876 169.735 235.603 165.552C234.169 160.841 237.399 156.598 241.834 156.904V156.907Z" fill="white"/>
<path d="M134.132 156.91C135.543 156.768 136.761 157.216 137.865 158.078C138.319 158.433 138.701 158.742 138.204 159.344C137.802 159.829 137.465 159.916 136.888 159.509C135.169 158.3 133.094 158.225 131.689 159.217C129.939 160.455 129.194 162.572 129.729 164.811C130.151 166.585 131.735 167.987 133.698 168.264C134.847 168.425 135.873 168.018 136.779 167.358C137.296 166.98 137.698 166.761 138.187 167.381C138.756 168.105 138.155 168.408 137.733 168.754C134.428 171.457 128.915 169.383 128.007 165.102C127.263 161.583 128.708 158.6 131.752 157.262C132.534 156.918 133.333 156.95 134.132 156.913V156.91Z" fill="white"/>
<path d="M302.16 157.048C300.505 159.347 299.002 161.421 297.519 163.51C297.254 163.882 296.717 164.239 296.947 164.739C297.191 165.269 297.798 164.955 298.243 165.004C298.574 165.041 298.916 164.975 299.246 165.021C300.499 165.197 301.151 164.813 300.962 163.406C300.89 162.884 300.784 162.203 301.715 162.183C302.718 162.163 302.632 162.881 302.565 163.469C302.439 164.626 302.792 165.188 304.034 165.018C304.649 164.935 304.833 165.313 304.853 165.901C304.876 166.588 304.508 166.758 303.968 166.683C302.634 166.501 302.491 167.26 302.56 168.312C302.588 168.786 302.85 169.478 302.143 169.674C301.479 169.856 300.847 169.908 300.896 168.777C300.996 166.547 301.143 166.717 298.826 166.706C297.631 166.7 296.435 166.74 295.243 166.706C294.156 166.671 293.797 166.013 294.441 165.108C296.266 162.543 298.163 160.034 300.002 157.481C300.516 156.766 301.157 157.005 302.16 157.048Z" fill="white"/>
<path d="M157.537 163.371C157.537 161.788 157.494 160.201 157.557 158.62C157.583 157.977 157.115 156.939 158.465 156.968C159.704 156.993 159.287 157.948 159.299 158.557C159.342 161.245 159.362 163.934 159.293 166.619C159.261 167.805 159.647 168.252 160.848 168.177C162.23 168.09 163.621 168.171 165.006 168.16C165.587 168.154 165.886 168.344 165.874 168.99C165.863 169.631 165.481 169.657 165.018 169.657C162.819 169.657 160.618 169.637 158.419 169.671C157.563 169.686 157.528 169.172 157.528 168.549C157.534 166.821 157.528 165.093 157.528 163.366H157.534L157.537 163.371Z" fill="white"/>
<path d="M313.062 155.369C312.766 156.258 312.343 157.527 311.924 158.799C310.605 162.794 309.268 166.784 307.984 170.79C307.762 171.477 307.44 171.797 306.765 171.598C305.9 171.344 306.532 170.811 306.644 170.456C308.236 165.442 309.852 160.44 311.475 155.439C311.654 154.888 311.895 154.345 312.654 154.42C313.001 154.455 313.191 154.588 313.059 155.366L313.062 155.369Z" fill="white"/>
<path d="M123.912 163.406C123.912 165.18 123.906 166.951 123.915 168.725C123.918 169.319 123.82 169.764 123.064 169.726C122.389 169.694 122.185 169.371 122.188 168.722C122.213 165.128 122.213 161.534 122.208 157.94C122.208 157.334 122.311 156.944 123.058 156.95C123.8 156.953 123.915 157.328 123.906 157.942C123.886 159.763 123.9 161.586 123.9 163.406H123.912Z" fill="white"/>
<path d="M258.54 139.245C258.514 140.834 257.201 142.017 255.531 141.979C254.298 141.95 253.695 141.255 253.646 140.098C253.58 138.46 255.034 137.006 256.603 137.049C257.773 137.081 258.563 137.975 258.543 139.242L258.54 139.245Z" fill="white"/>
<path d="M150.585 153.691C149.013 154.573 148.352 156.388 146.395 155.984C147.495 153.965 148.429 153.399 150.585 153.691Z" fill="white"/>
</g>
<defs>
<filter id="filter0_d_219_241" x="0" y="0" width="467.638" height="181.366" filterUnits="userSpaceOnUse" color-interpolation-filters="sRGB">
<feFlood flood-opacity="0" result="BackgroundImageFix"/>
<feColorMatrix in="SourceAlpha" type="matrix" values="0 0 0 0 0 0 0 0 0 0 0 0 0 0 0 0 0 0 127 0" result="hardAlpha"/>
<feOffset dy="4"/>
<feGaussianBlur stdDeviation="2"/>
<feComposite in2="hardAlpha" operator="out"/>
<feColorMatrix type="matrix" values="0 0 0 0 0 0 0 0 0 0 0 0 0 0 0 0 0 0 0.25 0"/>
<feBlend mode="normal" in2="BackgroundImageFix" result="effect1_dropShadow_219_241"/>
<feBlend mode="normal" in="SourceGraphic" in2="effect1_dropShadow_219_241" result="shape"/>
</filter>
</defs>
</svg>
