<svg width="124" height="166" viewBox="0 0 124 166" fill="none" xmlns="http://www.w3.org/2000/svg">
<g clip-path="url(#clip0_124_232)">
<path d="M23.2224 3.00612e-05C24.5137 0.642468 25.8446 1.18152 27.0872 1.93842C31.5246 4.64109 34.9235 8.82063 37.8959 13.5245C43.9596 23.113 48.0133 33.9569 51.3543 45.2623C52.9928 50.8117 54.3298 56.4607 55.6333 62.1282C55.7246 62.5269 55.883 62.9035 56.0688 63.4684C56.5561 62.8112 56.553 62.1171 56.5987 61.5153C57.0038 56.0804 56.8393 50.712 55.1764 45.543C54.7836 44.3208 54.5521 43.0581 55.8921 42.4858C57.1621 41.9431 57.5946 43.0692 57.9114 44.2396C59.4768 50.0326 60.2229 55.9327 59.4615 62.0248C59.4098 62.4346 59.4555 62.8629 59.4555 63.5607C61.0056 61.8734 62.3822 60.2895 63.8289 58.8126C67.4013 55.1684 71.458 52.6541 75.9898 51.2363C77.2019 50.856 77.7989 51.3397 78.0973 52.739C78.3349 53.8651 78.1247 54.3488 77.0953 54.6109C70.7514 56.2392 65.8603 60.703 61.3802 66.5883C62.8969 66.7729 63.9142 65.9053 64.9436 65.3958C73.3919 61.2088 82.0535 57.8527 90.9861 55.6041C97.1351 54.0571 103.351 52.7685 109.671 53.2374C114.12 53.5697 118.177 55.294 121.387 59.3074C125.547 64.5096 124.618 71.6724 119.535 76.0772C115.78 79.33 111.483 80.8992 107.036 81.8887C96.0448 84.3329 85.029 83.624 74.0132 82.0511C71.26 81.6561 68.5038 81.2942 65.644 80.9029C66.2075 81.9551 67.0633 82.4277 67.779 83.0406C74.5584 88.8373 81.0789 95.0144 87.1274 101.911C89.7101 104.854 92.1465 107.959 94.0774 111.592C94.5159 112.419 94.8388 113.305 95.1616 114.21C96.6204 118.312 93.8216 120.786 91.2633 121.07C90.3131 121.173 89.3294 120.823 88.4157 121.391C87.9162 121.088 87.4198 120.782 86.9234 120.476C82.556 119.191 79.0567 116.034 75.7401 112.608C68.6135 105.249 62.769 96.4875 57.3144 87.3199C56.6627 86.227 55.9805 85.1562 55.3957 84.0154C54.8688 82.989 54.4272 83.0259 53.7633 83.8418C51.3634 86.7919 49.5087 90.2367 47.7422 93.7369C42.1902 104.736 37.701 116.388 33.489 128.211C30.9003 135.473 28.1593 142.654 25.4975 149.88C23.5209 155.245 21.5595 160.621 19.5921 165.996C19.4794 164.438 18.1607 164.39 17.4907 163.534C18.8246 160.314 20.1281 157.076 21.4956 153.882C27.1086 140.753 31.8292 127.133 36.6716 113.575C39.3213 106.157 42.4551 98.9945 44.8368 91.4256C45.9332 87.9365 46.926 84.4031 48.0194 80.9103C48.4458 79.5478 47.8031 79.6291 47.0753 79.6845C43.18 79.9798 39.2999 80.5041 35.3894 80.6112C26.9593 80.8438 18.5414 80.9324 10.3214 78.1965C7.69006 77.3215 5.12265 76.1584 2.96944 73.98C1.57762 72.5733 0.432487 70.9303 0.0944303 68.7335C-0.374586 65.6837 1.08424 63.5681 4.03843 62.7263C8.30526 61.5116 12.6269 61.807 16.912 62.2943C24.3828 63.1435 31.7317 64.9195 39.0045 67.1643C39.8603 67.4301 40.6583 68.1095 41.8156 67.8252C40.1131 65.968 38.499 64.2401 36.9183 62.4716C30.011 54.7402 23.8376 46.2592 19.1109 36.3531C16.0714 29.9805 13.8969 23.209 13.2908 15.8173C13.0076 12.3688 13.1264 8.96462 14.3964 5.72659C15.4045 3.15314 16.8663 1.27752 19.1718 0.472628C19.3302 0.417245 19.4429 0.162486 19.5769 -0.00366211C20.7951 -0.00366211 22.0133 -0.00366211 23.2316 -0.00366211L23.2224 3.00612e-05ZM30.5988 23.5967C28.6496 23.6225 27.6476 25.044 27.4984 27.5436C27.203 32.4874 28.5034 36.9956 30.3064 41.2896C35.2585 53.0898 43.0368 61.8513 51.4609 69.8928C52.2618 70.6571 53.0324 70.1956 53.072 68.9402C53.0902 68.3458 52.9471 67.7255 52.7979 67.1422C50.5959 58.4692 48.1046 49.9329 44.5566 41.9062C42.114 36.379 39.3852 31.0918 35.4747 26.8753C33.958 25.2397 32.3256 23.7961 30.5988 23.5967ZM83.1316 78.0082C85.7721 78.0673 88.4066 77.8753 91.0135 77.4433C94.8235 76.8119 98.6244 76.0846 101.831 73.1345C104.381 70.79 104.335 67.1163 101.703 64.8789C99.1635 62.7189 96.3067 62.2131 93.313 62.4346C86.2412 62.9626 79.4221 64.9748 72.7067 67.6074C68.4734 69.2652 64.3954 71.4103 60.2503 73.3524C59.6199 73.6478 59.6443 74.1277 59.6047 74.5523C59.5438 75.2169 60.095 75.2058 60.4788 75.2834C67.98 76.7824 75.5208 77.8236 83.1286 78.0045L83.1316 78.0082ZM29.7064 48.0019C29.9897 47.4481 29.6881 47.1786 29.542 46.8943C28.0131 43.9295 26.7431 40.8096 25.8903 37.4719C24.8701 33.4696 23.9869 29.4451 24.9797 25.1954C25.8873 21.3112 28.6831 19.3064 31.8749 20.3882C35.7793 21.7137 38.4441 25.0551 40.8745 28.7104C42.1414 30.6155 43.2713 32.6573 44.4652 34.6363C43.1739 31.6161 42.1475 28.4704 40.7862 25.4982C38.5385 20.5876 35.9925 16.0019 32.9347 11.8334C30.4313 8.41818 27.605 5.45706 23.9229 4.01342C20.1525 2.53655 17.4572 4.47494 16.44 9.068C15.572 12.9891 16.1354 16.7736 16.8602 20.5359C18.3587 28.3042 21.523 35.1163 25.3634 41.5074C26.7096 43.7486 27.9522 46.1005 29.7064 48.0019ZM49.8802 75.7818C48.7747 73.8841 47.2275 73.6847 45.8662 73.1493C39.8938 70.7863 33.7753 69.1433 27.6019 67.7477C21.3159 66.3262 15.0085 65.2518 8.60373 65.3958C7.05658 65.429 5.48203 65.5508 3.99275 66.3262C2.68925 67.0055 2.65575 67.9987 3.3075 69.2504C4.22726 71.0189 5.55512 72.2337 7.09008 73.1124C12.5751 76.2544 18.5018 76.8083 24.4071 77.1405C30.279 77.4728 36.166 77.2919 42.0348 76.7529C44.5962 76.5166 47.1453 76.1252 49.8772 75.7855L49.8802 75.7818ZM89.8258 117.684C92.7861 117.622 93.3251 116.451 91.8267 113.486C91.0866 112.02 90.2248 110.658 89.2532 109.395C84.2402 102.875 78.5572 97.274 72.7646 91.8354C68.248 87.5931 63.6187 83.5354 58.7976 79.81C58.2951 79.4223 57.7499 78.946 57.15 79.6328C56.4556 80.4266 57.1226 81.0099 57.4302 81.5305C59.4646 84.9606 61.4625 88.4312 63.6218 91.7431C68.7718 99.6369 74.1533 107.272 80.9723 113.184C83.6738 115.524 86.5335 117.444 89.8227 117.684H89.8258ZM92.6216 58.9049C96.0722 58.7868 99.4437 59.1744 102.541 61.375C105.989 63.8266 107.505 68.2129 106.132 72.086C105.386 74.1905 103.994 75.6009 102.444 76.823C101.003 77.9565 99.3614 78.5768 97.4427 79.6549C102.821 79.3559 107.709 78.5546 112.409 76.5904C114.988 75.5123 117.476 74.124 119.395 71.5949C121.688 68.571 121.777 65.1078 119.526 62.0211C117.236 58.8754 114.236 57.3136 110.877 56.8964C104.719 56.1321 98.6731 57.3136 92.6247 58.9012L92.6216 58.9049Z" fill="#64090E"/>
</g>
<defs>
<clipPath id="clip0_124_232">
<rect width="124" height="166" fill="white"/>
</clipPath>
</defs>
</svg>
