<svg xmlns="http://www.w3.org/2000/svg" xmlns:xlink="http://www.w3.org/1999/xlink" width="265" zoomAndPan="magnify" viewBox="0 0 198.75 196.499994" height="262" preserveAspectRatio="xMidYMid meet" version="1.0"><defs><clipPath id="dcb0392fba"><path d="M 0.128906 0 L 198.375 0 L 198.375 196 L 0.128906 196 Z M 0.128906 0 " clip-rule="nonzero"/></clipPath></defs><g clip-path="url(#dcb0392fba)"><path fill="#ffffff" d="M 161.246094 0 C 159.179688 0.757812 157.054688 1.394531 155.066406 2.289062 C 147.972656 5.480469 142.539062 10.414062 137.785156 15.96875 C 128.09375 27.289062 121.613281 40.09375 116.269531 53.441406 C 113.652344 59.996094 111.511719 66.664062 109.429688 73.355469 C 109.28125 73.828125 109.03125 74.273438 108.734375 74.9375 C 107.953125 74.164062 107.957031 73.34375 107.886719 72.632812 C 107.238281 66.214844 107.5 59.878906 110.160156 53.773438 C 110.789062 52.332031 111.15625 50.839844 109.015625 50.164062 C 106.984375 49.523438 106.292969 50.851562 105.785156 52.234375 C 103.285156 59.074219 102.089844 66.042969 103.308594 73.234375 C 103.390625 73.71875 103.320312 74.222656 103.320312 75.046875 C 100.839844 73.054688 98.640625 71.1875 96.324219 69.441406 C 90.613281 65.140625 84.128906 62.171875 76.882812 60.496094 C 74.945312 60.046875 73.992188 60.617188 73.515625 62.269531 C 73.132812 63.601562 73.46875 64.171875 75.117188 64.480469 C 85.257812 66.402344 93.078125 71.675781 100.242188 78.621094 C 97.816406 78.839844 96.191406 77.816406 94.542969 77.214844 C 81.039062 72.269531 67.1875 68.308594 52.910156 65.652344 C 43.078125 63.828125 33.140625 62.304688 23.035156 62.859375 C 15.921875 63.25 9.4375 65.289062 4.304688 70.027344 C -2.347656 76.167969 -0.859375 84.625 7.265625 89.828125 C 13.269531 93.667969 20.140625 95.519531 27.25 96.6875 C 44.820312 99.574219 62.433594 98.738281 80.042969 96.878906 C 84.445312 96.414062 88.851562 95.988281 93.425781 95.523438 C 92.523438 96.765625 91.15625 97.324219 90.011719 98.046875 C 79.171875 104.894531 68.746094 112.1875 59.078125 120.328125 C 54.949219 123.804688 51.054688 127.46875 47.964844 131.761719 C 47.265625 132.738281 46.75 133.78125 46.234375 134.851562 C 43.902344 139.695312 48.375 142.617188 52.464844 142.949219 C 53.984375 143.074219 55.558594 142.660156 57.019531 143.328125 C 57.816406 142.972656 58.609375 142.609375 59.402344 142.25 C 66.386719 140.730469 71.980469 137.003906 77.285156 132.960938 C 88.675781 124.269531 98.019531 113.925781 106.742188 103.101562 C 107.78125 101.8125 108.875 100.546875 109.808594 99.199219 C 110.652344 97.988281 111.355469 98.03125 112.417969 98.996094 C 116.253906 102.476562 119.222656 106.546875 122.042969 110.679688 C 130.921875 123.664062 138.097656 137.421875 144.832031 151.382812 C 148.972656 159.957031 153.351562 168.4375 157.609375 176.96875 C 160.769531 183.300781 163.90625 189.648438 167.050781 195.996094 C 167.230469 194.15625 169.339844 194.101562 170.410156 193.089844 C 168.277344 189.289062 166.191406 185.464844 164.007812 181.691406 C 155.03125 166.191406 147.484375 150.109375 139.742188 134.101562 C 135.507812 125.34375 130.496094 116.886719 126.691406 107.949219 C 124.9375 103.828125 123.347656 99.65625 121.601562 95.535156 C 120.917969 93.925781 121.949219 94.019531 123.109375 94.085938 C 129.339844 94.433594 135.542969 95.054688 141.792969 95.179688 C 155.273438 95.453125 168.730469 95.558594 181.871094 92.328125 C 186.078125 91.296875 190.183594 89.921875 193.625 87.351562 C 195.851562 85.6875 197.679688 83.75 198.222656 81.15625 C 198.972656 77.554688 196.640625 75.054688 191.917969 74.0625 C 185.09375 72.628906 178.1875 72.976562 171.335938 73.554688 C 159.390625 74.554688 147.640625 76.652344 136.015625 79.300781 C 134.644531 79.617188 133.371094 80.417969 131.519531 80.082031 C 134.242188 77.890625 136.824219 75.851562 139.351562 73.761719 C 150.390625 64.632812 160.261719 54.621094 167.820312 42.921875 C 172.679688 35.398438 176.15625 27.402344 177.125 18.675781 C 177.578125 14.605469 177.386719 10.585938 175.355469 6.761719 C 173.746094 3.722656 171.40625 1.507812 167.722656 0.558594 C 167.46875 0.492188 167.289062 0.191406 167.074219 -0.00390625 C 165.125 -0.00390625 163.179688 -0.00390625 161.230469 -0.00390625 Z M 149.453125 27.859375 C 152.570312 27.890625 154.171875 29.570312 154.410156 32.523438 C 154.882812 38.359375 152.804688 43.683594 149.921875 48.75 C 142.003906 62.683594 129.566406 73.03125 116.101562 82.523438 C 114.820312 83.425781 113.585938 82.882812 113.523438 81.398438 C 113.496094 80.699219 113.722656 79.964844 113.960938 79.277344 C 117.480469 69.035156 121.464844 58.957031 127.136719 49.480469 C 131.042969 42.953125 135.40625 36.710938 141.65625 31.734375 C 144.082031 29.800781 146.691406 28.097656 149.453125 27.859375 Z M 65.464844 92.105469 C 61.246094 92.175781 57.03125 91.949219 52.863281 91.441406 C 46.773438 90.695312 40.695312 89.835938 35.570312 86.351562 C 31.492188 83.585938 31.566406 79.246094 35.773438 76.605469 C 39.835938 74.054688 44.402344 73.457031 49.1875 73.71875 C 60.496094 74.339844 71.394531 76.71875 82.132812 79.828125 C 88.902344 81.785156 95.421875 84.316406 102.046875 86.609375 C 103.054688 86.957031 103.015625 87.523438 103.078125 88.027344 C 103.175781 88.8125 102.296875 88.796875 101.683594 88.890625 C 89.691406 90.660156 77.632812 91.890625 65.46875 92.101562 Z M 150.878906 56.675781 C 150.425781 56.023438 150.910156 55.707031 151.144531 55.371094 C 153.585938 51.867188 155.617188 48.183594 156.980469 44.246094 C 158.613281 39.519531 160.023438 34.765625 158.4375 29.75 C 156.984375 25.164062 152.515625 22.796875 147.414062 24.074219 C 141.171875 25.636719 136.910156 29.582031 133.023438 33.898438 C 131 36.148438 129.191406 38.558594 127.285156 40.894531 C 129.347656 37.328125 130.988281 33.617188 133.164062 30.105469 C 136.757812 24.308594 140.828125 18.894531 145.71875 13.972656 C 149.71875 9.941406 154.238281 6.441406 160.125 4.738281 C 166.152344 2.996094 170.464844 5.285156 172.089844 10.707031 C 173.476562 15.335938 172.578125 19.804688 171.417969 24.246094 C 169.023438 33.417969 163.964844 41.460938 157.824219 49.007812 C 155.671875 51.65625 153.683594 54.433594 150.878906 56.675781 Z M 118.625 89.476562 C 120.394531 87.238281 122.867188 87 125.042969 86.371094 C 134.59375 83.578125 144.375 81.640625 154.246094 79.992188 C 164.292969 78.3125 174.378906 77.046875 184.617188 77.214844 C 187.089844 77.253906 189.609375 77.398438 191.988281 78.3125 C 194.074219 79.117188 194.125 80.289062 193.085938 81.765625 C 191.613281 83.855469 189.492188 85.289062 187.039062 86.324219 C 178.269531 90.035156 168.792969 90.691406 159.351562 91.082031 C 149.964844 91.472656 140.550781 91.261719 131.167969 90.625 C 127.074219 90.34375 123 89.882812 118.632812 89.480469 Z M 54.761719 138.953125 C 50.03125 138.878906 49.167969 137.496094 51.5625 133.996094 C 52.746094 132.265625 54.125 130.65625 55.679688 129.167969 C 63.695312 121.46875 72.777344 114.855469 82.039062 108.433594 C 89.261719 103.421875 96.660156 98.632812 104.371094 94.234375 C 105.171875 93.777344 106.042969 93.214844 107.003906 94.023438 C 108.113281 94.960938 107.046875 95.652344 106.554688 96.265625 C 103.304688 100.316406 100.109375 104.414062 96.65625 108.324219 C 88.425781 117.644531 79.820312 126.660156 68.917969 133.640625 C 64.597656 136.402344 60.027344 138.671875 54.769531 138.953125 Z M 50.292969 69.550781 C 44.777344 69.410156 39.386719 69.867188 34.433594 72.46875 C 28.921875 75.363281 26.5 80.539062 28.695312 85.113281 C 29.886719 87.597656 32.113281 89.265625 34.589844 90.707031 C 36.894531 92.046875 39.519531 92.777344 42.585938 94.050781 C 33.988281 93.699219 26.171875 92.753906 18.660156 90.433594 C 14.535156 89.160156 10.558594 87.519531 7.488281 84.535156 C 3.824219 80.964844 3.683594 76.875 7.28125 73.230469 C 10.941406 69.515625 15.738281 67.671875 21.109375 67.179688 C 30.953125 66.277344 40.617188 67.671875 50.289062 69.546875 Z M 50.292969 69.550781 " fill-opacity="1" fill-rule="nonzero"/></g></svg>