<svg width="291" height="318" viewBox="0 0 291 318" fill="none" xmlns="http://www.w3.org/2000/svg">
<g opacity="0.2">
<path d="M152.647 16.938C153.951 18.7592 155.385 20.4678 156.539 22.4101C160.659 29.3458 162.28 37.5454 162.935 46.1515C164.275 63.698 161.945 81.4965 158.301 99.4068C156.51 108.197 154.233 116.904 151.897 125.612C151.732 126.224 151.675 126.855 151.519 127.764C152.666 127.22 153.167 126.267 153.667 125.477C158.178 118.334 161.859 110.866 163.34 102.579C163.69 100.62 164.292 98.7225 166.546 98.9167C168.684 99.1003 168.457 100.957 168.04 102.79C165.972 111.86 162.702 120.48 157.224 128.263C156.855 128.786 156.606 129.405 156.098 130.36C159.452 129.182 162.494 128.018 165.553 127.052C173.106 124.67 180.501 124.188 187.749 125.553C189.689 125.916 190.156 127.014 189.547 129.147C189.053 130.861 188.413 131.37 186.81 130.978C176.922 128.579 166.964 131.121 156.535 135.908C158.481 137.267 160.508 136.821 162.291 136.875C176.928 137.307 191.253 139.031 205.143 142.469C214.704 144.837 224.169 147.608 232.497 152.859C238.36 156.559 242.67 161.878 244.153 169.713C246.074 179.868 239.587 188.993 229.409 191.314C221.89 193.027 214.853 192.04 208.033 190.151C191.176 185.479 176.58 176.474 162.613 166.286C159.123 163.737 155.605 161.232 151.967 158.61C151.974 160.461 152.804 161.732 153.34 163.093C158.422 175.972 162.872 189.182 166.15 203.034C167.552 208.945 168.634 214.972 168.639 221.353C168.639 222.805 168.437 224.253 168.222 225.727C167.238 232.405 161.598 233.749 157.882 232.272C156.503 231.721 155.409 230.523 153.741 230.635C153.277 229.856 152.819 229.075 152.361 228.293C147.304 223.349 144.801 216.476 142.745 209.367C138.323 194.098 136.682 177.843 135.87 161.317C135.772 159.346 135.615 157.383 135.643 155.395C135.667 153.606 135.035 153.334 133.53 153.966C128.091 156.254 123.04 159.615 118.069 163.118C102.448 174.122 87.81 186.796 73.4283 199.904C64.5919 207.956 55.6056 215.785 46.6958 223.733C40.0802 229.634 33.4774 235.561 26.8663 241.483C27.8455 239.269 26.0714 238.241 25.7756 236.58C29.9486 233.146 34.0932 229.665 38.2933 226.292C55.548 212.416 71.9359 197.218 88.4453 182.194C97.4782 173.975 106.99 166.457 115.765 157.835C119.809 153.859 123.742 149.747 127.784 145.764C129.36 144.211 128.419 143.853 127.381 143.398C121.822 140.961 116.118 138.848 110.675 136.143C98.9411 130.312 87.3286 124.293 78.0432 114.553C75.0702 111.436 72.3945 107.971 71.0259 103.419C70.1403 100.478 69.765 97.3945 70.9 94.1411C72.4759 89.625 76.0168 87.7935 80.6821 88.7962C87.4195 90.2459 93.1331 93.8025 98.6569 97.5951C108.288 104.207 117.077 111.998 125.42 120.375C126.401 121.363 127.001 122.875 128.795 123.33C127.811 119.546 126.855 116.004 125.973 112.431C122.124 96.8106 119.827 80.7001 120.552 63.6942C121.02 52.7551 122.964 41.9012 127.512 31.3423C129.633 26.4159 132.273 21.8433 136.372 18.3379C139.628 15.551 142.998 14.0502 146.747 14.6303C147.004 14.67 147.344 14.4035 147.649 14.2738C149.32 15.1624 150.991 16.051 152.663 16.9396L152.647 16.938ZM145.594 54.6144C142.902 53.228 140.493 54.4427 138.469 57.7549C134.466 64.3059 132.969 71.4246 132.318 78.6167C130.524 98.3794 134.818 116.045 140.523 133.195C141.065 134.826 142.458 134.756 143.426 133.067C143.884 132.267 144.139 131.313 144.358 130.406C147.649 116.929 150.444 103.429 151.418 89.855C152.089 80.5085 152.193 71.2817 149.897 62.6584C149.007 59.3134 147.818 56.1468 145.594 54.6144ZM178.064 167.404C181.643 169.411 185.397 171.07 189.288 172.38C194.974 174.295 200.717 176.072 207.263 174.373C212.467 173.024 215.077 167.963 213.096 162.981C211.183 158.172 207.632 155.396 203.364 153.515C193.279 149.08 182.46 146.86 171.332 145.565C164.318 144.746 157.162 144.707 150.063 144.342C148.983 144.286 148.667 144.961 148.304 145.513C147.736 146.378 148.501 146.765 148.971 147.151C158.17 154.674 167.757 161.6 178.062 167.397L178.064 167.404ZM126.61 87.3661C127.401 86.8147 127.184 86.2259 127.19 85.7301C127.25 80.5571 127.779 75.3607 129.038 70.1704C130.551 63.9484 132.268 57.796 136.723 52.7038C140.794 48.0497 146.089 47.3451 149.68 51.1538C154.071 55.8159 155.296 62.333 155.97 69.1086C156.321 72.6402 156.385 76.2589 156.583 79.8383C157.009 74.7628 157.891 69.7087 158.186 64.6477C158.676 56.2873 158.521 48.1539 157.359 40.2183C156.41 33.7179 154.688 27.6036 150.688 22.9419C146.59 18.1704 141.482 18.8574 136.744 24.4018C132.7 29.1353 130.718 34.726 128.975 40.404C125.377 52.1292 124.761 63.7608 125.378 75.3094C125.594 79.3587 125.587 83.484 126.61 87.3661ZM134.069 140.103C133.933 136.699 131.956 135.297 130.478 133.572C124.004 125.981 116.806 119.269 109.353 112.856C101.764 106.326 93.8934 100.254 85.0023 95.7797C82.8557 94.6967 80.607 93.715 77.9997 93.6899C75.7171 93.6689 74.9484 95.0038 74.9316 97.1923C74.9063 100.284 75.8439 102.915 77.3102 105.237C82.5482 113.538 90.2756 118.619 98.1349 123.382C105.948 128.12 114.156 132.166 122.599 135.709C126.285 137.254 130.067 138.578 134.062 140.105L134.069 140.103ZM158.373 226.59C162.48 228.663 164.071 227.455 164.173 222.304C164.225 219.758 164.034 217.265 163.62 214.828C161.488 202.247 157.768 190.436 153.779 178.767C150.671 169.666 147.273 160.736 143.37 152.12C142.963 151.223 142.562 150.174 141.239 150.676C139.709 151.256 140.199 152.541 140.242 153.478C140.537 159.656 140.752 165.864 141.304 171.972C142.625 186.532 144.451 200.908 149.503 213.972C151.506 219.146 154.032 223.86 158.369 226.588L158.373 226.59ZM204.985 148.18C209.804 150.535 214.147 153.525 216.795 158.796C219.74 164.666 218.629 171.776 213.926 176.075C211.371 178.411 208.435 179.326 205.419 179.868C202.618 180.369 199.915 180.02 196.498 180.096C204.094 183.61 211.383 186.079 219.259 186.819C223.582 187.225 228.006 187.139 232.478 185.077C237.825 182.612 240.467 177.936 239.625 172.07C238.773 166.094 235.794 161.768 231.489 158.747C223.597 153.209 214.444 150.416 204.991 148.177L204.985 148.18Z" fill="#FAF6EB"/>
</g>
</svg>
